<svg width="32" height="20" viewBox="0 0 32 20" xmlns="http://www.w3.org/2000/svg">
<path id="Vector" fill-rule="evenodd" clip-rule="evenodd" d="M0.106656 9.187C-0.0355522 9.43373 -0.0355522 9.73767 0.106656 9.9841C3.27219 15.479 9.20812 19.1718 16 19.1718C22.7919 19.1718 28.7277 15.4791 31.8933 9.9841C32.0356 9.73763 32.0356 9.4337 31.8933 9.187C28.7278 3.69239 22.7919 0 16 0C9.20812 0 3.27232 3.69266 0.106656 9.187ZM1.7274 9.58557C4.67053 4.78998 9.96525 1.59681 16.0003 1.59681C22.0349 1.59681 27.3299 4.79012 30.2731 9.58557C27.33 14.3811 22.0353 17.575 16.0003 17.575C9.96539 17.575 4.67066 14.3811 1.7274 9.58625V9.58557ZM16.0003 3.20455C12.4784 3.20455 9.61981 6.06371 9.61981 9.58557C9.61981 13.1074 12.4787 15.966 16.0003 15.966C19.5221 15.966 22.3813 13.1071 22.3813 9.58557C22.3813 6.06371 19.5221 3.20455 16.0003 3.20455ZM16.0003 4.80148C18.6408 4.80148 20.7844 6.94532 20.7844 9.58557C20.7844 12.2261 18.6405 14.3697 16.0003 14.3697C13.3598 14.3697 11.2162 12.2258 11.2162 9.58557C11.2162 6.94505 13.36 4.80148 16.0003 4.80148Z"/>
</svg>
