<svg width="32" height="21" viewBox="0 0 32 21" xmlns="http://www.w3.org/2000/svg">
<path id="Vector" fill-rule="evenodd" clip-rule="evenodd" d="M23.0519 2.15417C20.8806 1.24902 18.4982 0.749196 16 0.749196C9.20812 0.749196 3.27232 4.44186 0.106656 9.9362C-0.0355521 10.1829 -0.0355521 10.4869 0.106656 10.7333C1.82656 13.7195 4.36498 16.1728 7.41451 17.7914L5.89861 19.3078C5.58692 19.6195 5.58692 20.1252 5.89861 20.4367C6.21029 20.7484 6.71603 20.7484 7.02746 20.4367L26.1015 1.36262C26.4132 1.05093 26.4132 0.5452 26.1015 0.233765C25.7898 -0.0779218 25.2841 -0.0779218 24.9727 0.233765L23.0515 2.15438L23.0519 2.15417ZM25.5957 5.36624C27.4743 6.68246 29.07 8.37485 30.2729 10.335C27.3297 15.1306 22.035 18.3245 16 18.3245C14.6634 18.3245 13.3627 18.1678 12.1159 17.8719C11.6874 17.77 11.2568 18.0355 11.1549 18.464C11.0531 18.8928 11.3185 19.3236 11.7473 19.4255C13.1122 19.7498 14.5359 19.9214 16 19.9214C22.7919 19.9214 28.7277 16.2287 31.8933 10.7337C32.0355 10.4872 32.0355 10.1833 31.8933 9.93661C30.5498 7.60486 28.707 5.59706 26.5118 4.05864C26.1509 3.80577 25.6526 3.89344 25.3998 4.25458C25.1469 4.61519 25.2346 5.11375 25.5957 5.36633L25.5957 5.36624ZM20.6801 9.33714C20.7482 9.65898 20.7843 9.99286 20.7843 10.335C20.7843 12.9755 18.6405 15.1191 16.0002 15.1191C15.6562 15.1191 15.3204 15.0827 14.9965 15.0132C14.5658 14.9213 14.1411 15.1964 14.0488 15.6273C13.9569 16.0584 14.2319 16.4829 14.6628 16.5749C15.0943 16.6671 15.5415 16.7155 16.0002 16.7155C19.5221 16.7155 22.3812 13.8566 22.3812 10.3351C22.3812 9.87901 22.3328 9.43421 22.2417 9.00514C22.1505 8.57397 21.7258 8.29838 21.2951 8.39005C20.8639 8.48174 20.5884 8.90597 20.68 9.33688L20.6801 9.33714ZM21.821 3.3854C20.0075 2.71285 18.0465 2.34606 16.0002 2.34606C9.96531 2.34606 4.67059 5.53937 1.72733 10.3355C3.37504 13.0206 5.76078 15.2038 8.60064 16.6053L10.9594 14.2462C10.1196 13.1655 9.61939 11.8081 9.61939 10.3352C9.61939 6.81337 12.4783 3.95421 15.9999 3.95421C17.4733 3.95421 18.8307 4.45462 19.9114 5.29479L21.8205 3.38568L21.821 3.3854ZM18.7707 6.43542C17.9888 5.87861 17.0328 5.55087 16.0005 5.55087C13.36 5.55087 11.2165 7.6947 11.2165 10.3349C11.2165 11.367 11.5442 12.3235 12.101 13.1051L18.771 6.43508L18.7707 6.43542Z"/>
</svg>
