<svg width="22" height="20" viewBox="0 0 22 20" xmlns="http://www.w3.org/2000/svg">
<g id="Frame 202">
<path id="Vector" d="M10.0057 12.7501C11.486 12.0114 12.5074 10.4857 12.5074 8.72184C12.5074 6.23878 10.4871 4.21875 8.0043 4.21875C5.52141 4.21875 3.50121 6.23907 3.50121 8.72184C3.50121 10.4856 4.52274 12.0114 6.00292 12.7501C2.0402 13.6844 1.20473 17.3343 1.03886 18.4824C1.01127 18.6734 1.15644 18.8374 1.34917 18.847V18.847C1.5414 18.8566 1.70621 18.7108 1.73244 18.5201C1.9022 17.2858 2.85283 13.2257 8.00381 13.2257C13.1532 13.2257 14.105 17.2834 14.2751 18.5191C14.3014 18.7103 14.4668 18.8566 14.6596 18.847V18.847C14.852 18.8374 14.9965 18.6743 14.9691 18.4836C14.8038 17.3369 13.9693 13.6846 10.0057 12.7501ZM4.19878 8.72217C4.19878 6.62394 5.9057 4.91702 8.00393 4.91702C10.1022 4.91702 11.8091 6.62394 11.8091 8.72217C11.8091 10.8204 10.1022 12.5277 8.00393 12.5277C5.9057 12.5275 4.19878 10.8204 4.19878 8.72217Z" stroke-width="0.6"/>
<path id="Vector_2" d="M15.9967 9.5314C17.4771 8.79261 18.4984 7.26697 18.4984 5.50309C18.4984 3.02003 16.4781 1 13.9954 1C12.1259 1 10.1471 2.3945 9.86766 4.52464C9.8494 4.66384 9.94268 4.79111 10.076 4.83519V4.83519C10.2792 4.90242 10.5018 4.7565 10.533 4.54468C10.7889 2.80469 12.4866 1.6982 13.9954 1.6982C16.0937 1.6982 17.8006 3.40512 17.8006 5.50335C17.8006 7.60157 16.0937 9.30883 13.9954 9.30883C13.6505 9.30883 12.3178 9.25851 12 9.17217C11.9356 9.49677 11.9087 9.67936 11.7822 10.0929C12.1808 10.0319 13.5309 10.0069 13.9954 10.0069C19.1456 10.0069 20.0969 14.0657 20.2668 15.3007C20.293 15.4917 20.4581 15.6377 20.6507 15.6281V15.6281C20.8432 15.6185 20.9881 15.455 20.9605 15.2642C20.795 14.1168 19.96 10.4657 15.9967 9.5314Z" stroke-width="0.6"/>
</g>
</svg>
