<svg xmlns="http://www.w3.org/2000/svg" width="18" height="16" viewBox="0 0 18 16">
<path d="M15.8838 1H2.1162C1.82026 1.00029 1.53651 1.11798 1.32725 1.32725C1.11798 1.53651 1.00029 1.82026 1 2.1162V4.67458C1.00043 4.97048 1.11817 5.25414 1.3274 5.46338C1.53664 5.67261 1.8203 5.79035 2.1162 5.79078H15.8838C16.1797 5.79035 16.4634 5.67261 16.6726 5.46338C16.8818 5.25414 16.9996 4.97048 17 4.67458V2.1162C16.9997 1.82026 16.882 1.53651 16.6728 1.32725C16.4635 1.11798 16.1797 1.00029 15.8838 1ZM16.1864 4.67458C16.1863 4.7548 16.1544 4.83169 16.0976 4.88842C16.0409 4.94515 15.964 4.97708 15.8838 4.97722H2.1162C2.03598 4.97708 1.95909 4.94515 1.90236 4.88842C1.84563 4.83169 1.8137 4.7548 1.81356 4.67458V2.1162C1.81356 2.03594 1.84544 1.95896 1.9022 1.9022C1.95896 1.84544 2.03594 1.81356 2.1162 1.81356H15.8838C15.9641 1.81356 16.041 1.84544 16.0978 1.9022C16.1546 1.95896 16.1864 2.03594 16.1864 2.1162V4.67458Z" fill="white" stroke="white" stroke-width="0.5"/>
<path d="M2.92533 7.53223C2.81745 7.53223 2.71398 7.57508 2.6377 7.65137C2.56141 7.72766 2.51855 7.83112 2.51855 7.93901V13.5777C2.51899 13.9482 2.66638 14.3035 2.92841 14.5655C3.19043 14.8275 3.54569 14.9749 3.91625 14.9753H14.0836C14.4541 14.9749 14.8094 14.8275 15.0714 14.5655C15.3334 14.3035 15.4808 13.9482 15.4813 13.5777V7.93901C15.4813 7.83112 15.4384 7.72766 15.3621 7.65137C15.2858 7.57508 15.1824 7.53223 15.0745 7.53223C14.9666 7.53223 14.8631 7.57508 14.7869 7.65137C14.7106 7.72766 14.6677 7.83112 14.6677 7.93901V13.5777C14.6676 13.7325 14.606 13.881 14.4965 13.9905C14.3869 14.1001 14.2385 14.1616 14.0836 14.1618H3.91625C3.76137 14.1616 3.61288 14.1001 3.50336 13.9905C3.39385 13.881 3.33226 13.7325 3.33211 13.5777V7.93901C3.33211 7.83112 3.28926 7.72766 3.21297 7.65137C3.13668 7.57508 3.03322 7.53223 2.92533 7.53223Z" fill="white" stroke="white" stroke-width="0.5"/>
<path d="M10.8987 9.21395C11.0066 9.21395 11.1101 9.17109 11.1863 9.09481C11.2626 9.01852 11.3055 8.91505 11.3055 8.80717C11.3055 8.69929 11.2626 8.59582 11.1863 8.51953C11.1101 8.44325 11.0066 8.40039 10.8987 8.40039H7.10209C6.99421 8.40039 6.89074 8.44325 6.81446 8.51953C6.73817 8.59582 6.69531 8.69929 6.69531 8.80717C6.69531 8.91505 6.73817 9.01852 6.81446 9.09481C6.89074 9.17109 6.99421 9.21395 7.10209 9.21395H10.8987Z" fill="white" stroke="white" stroke-width="0.5"/>
</svg>
