<svg width="56" height="56" viewBox="0 0 56 56" fill="none" xmlns="http://www.w3.org/2000/svg">
<path d="M28 24.5C31.9286 24.5 35.1429 27.65 35.1429 31.5C35.1429 35.35 31.9286 38.5 28 38.5C24.0714 38.5 20.8571 35.35 20.8571 31.5C20.8571 27.65 24.0714 24.5 28 24.5ZM28 24.5C24.0714 24.5 20.8571 27.65 20.8571 31.5C20.8571 35.35 24.0714 38.5 28 38.5C31.9286 38.5 35.1429 35.35 35.1429 31.5C35.1429 27.65 31.9286 24.5 28 24.5ZM47.6429 14H40.5C39.9643 14 39.4286 13.825 39.0714 13.3L35.6786 9.1C34.7857 7.875 33.1786 7 31.5714 7H24.4286C22.6429 7 21.0357 7.875 20.1429 9.1L16.9286 13.3C16.5714 13.65 16.0357 14 15.5 14H8.35714C5.32143 14 3 16.275 3 19.25V43.75C3 46.725 5.32143 49 8.35714 49H47.6429C50.6786 49 53 46.725 53 43.75V19.25C53 16.275 50.6786 14 47.6429 14ZM28 42C22.1071 42 17.2857 37.275 17.2857 31.5C17.2857 25.725 22.1071 21 28 21C33.8929 21 38.7143 25.725 38.7143 31.5C38.7143 37.275 33.8929 42 28 42ZM44.9643 24.5C43.5357 24.5 42.2857 23.275 42.2857 21.875C42.2857 20.475 43.5357 19.25 44.9643 19.25C46.3929 19.25 47.6429 20.475 47.6429 21.875C47.6429 23.275 46.3929 24.5 44.9643 24.5ZM28 24.5C24.0714 24.5 20.8571 27.65 20.8571 31.5C20.8571 35.35 24.0714 38.5 28 38.5C31.9286 38.5 35.1429 35.35 35.1429 31.5C35.1429 27.65 31.9286 24.5 28 24.5ZM28 24.5C24.0714 24.5 20.8571 27.65 20.8571 31.5C20.8571 35.35 24.0714 38.5 28 38.5C31.9286 38.5 35.1429 35.35 35.1429 31.5C35.1429 27.65 31.9286 24.5 28 24.5ZM28 24.5C24.0714 24.5 20.8571 27.65 20.8571 31.5C20.8571 35.35 24.0714 38.5 28 38.5C31.9286 38.5 35.1429 35.35 35.1429 31.5C35.1429 27.65 31.9286 24.5 28 24.5ZM28 24.5C24.0714 24.5 20.8571 27.65 20.8571 31.5C20.8571 35.35 24.0714 38.5 28 38.5C31.9286 38.5 35.1429 35.35 35.1429 31.5C35.1429 27.65 31.9286 24.5 28 24.5ZM28 24.5C24.0714 24.5 20.8571 27.65 20.8571 31.5C20.8571 35.35 24.0714 38.5 28 38.5C31.9286 38.5 35.1429 35.35 35.1429 31.5C35.1429 27.65 31.9286 24.5 28 24.5ZM28 24.5C24.0714 24.5 20.8571 27.65 20.8571 31.5C20.8571 35.35 24.0714 38.5 28 38.5C31.9286 38.5 35.1429 35.35 35.1429 31.5C35.1429 27.65 31.9286 24.5 28 24.5Z" fill="#979797"/>
</svg>
