<svg width="24" height="24" viewBox="0 0 24 24" fill="none" xmlns="http://www.w3.org/2000/svg">
<path d="M12.7 5.86364V5.2C12.7 4.8134 12.3866 4.5 12 4.5C11.6134 4.5 11.3 4.8134 11.3 5.2V5.86364H6.40035C5.61383 5.86364 4.99845 6.48904 5 7.22727H19C19.0015 6.48904 18.3862 5.86364 17.5997 5.86364H12.7Z" fill="currentColor"/>
<path d="M14.1 10.6545C14.1 10.2679 13.7866 9.95455 13.4 9.95455C13.0134 9.95455 12.7 10.2679 12.7 10.6545V14.7091C12.7 15.0957 13.0134 15.4091 13.4 15.4091C13.7866 15.4091 14.1 15.0957 14.1 14.7091V10.6545Z" fill="currentColor"/>
<path d="M9.9 10.6545C9.9 10.2679 10.2134 9.95455 10.6 9.95455C10.9866 9.95455 11.3 10.2679 11.3 10.6545V14.7091C11.3 15.0957 10.9866 15.4091 10.6 15.4091C10.2134 15.4091 9.9 15.0957 9.9 14.7091V10.6545Z" fill="currentColor"/>
<path d="M16.2395 9.21083C16.2801 8.85758 16.5791 8.59091 16.9347 8.59091C17.3528 8.59091 17.6776 8.95515 17.6299 9.37052L16.6764 17.6725L16.6763 17.6741C16.5611 18.7127 15.661 19.5 14.5884 19.5H9.41433C8.34176 19.5 7.44167 18.7128 7.32648 17.6743L7.32628 17.6725L6.37078 9.37069C6.32297 8.95526 6.64779 8.59091 7.06596 8.59091C7.42147 8.59091 7.72048 8.85748 7.76113 9.21066L8.71832 17.5272C8.75642 17.8736 9.0566 18.1364 9.41433 18.1364H14.5884C14.9461 18.1364 15.2463 17.8736 15.2844 17.5272L15.2848 17.524L16.2395 9.21083Z" fill="currentColor"/>
<path d="M12.7 5.86364V5.2C12.7 4.8134 12.3866 4.5 12 4.5C11.6134 4.5 11.3 4.8134 11.3 5.2V5.86364H6.40035C5.61383 5.86364 4.99845 6.48904 5 7.22727H19C19.0015 6.48904 18.3862 5.86364 17.5997 5.86364H12.7Z" stroke="white" stroke-width="0.3"/>
<path d="M14.1 10.6545C14.1 10.2679 13.7866 9.95455 13.4 9.95455C13.0134 9.95455 12.7 10.2679 12.7 10.6545V14.7091C12.7 15.0957 13.0134 15.4091 13.4 15.4091C13.7866 15.4091 14.1 15.0957 14.1 14.7091V10.6545Z" stroke="white" stroke-width="0.3"/>
<path d="M9.9 10.6545C9.9 10.2679 10.2134 9.95455 10.6 9.95455C10.9866 9.95455 11.3 10.2679 11.3 10.6545V14.7091C11.3 15.0957 10.9866 15.4091 10.6 15.4091C10.2134 15.4091 9.9 15.0957 9.9 14.7091V10.6545Z" stroke="white" stroke-width="0.3"/>
<path d="M16.2395 9.21083C16.2801 8.85758 16.5791 8.59091 16.9347 8.59091C17.3528 8.59091 17.6776 8.95515 17.6299 9.37052L16.6764 17.6725L16.6763 17.6741C16.5611 18.7127 15.661 19.5 14.5884 19.5H9.41433C8.34176 19.5 7.44167 18.7128 7.32648 17.6743L7.32628 17.6725L6.37078 9.37069C6.32297 8.95526 6.64779 8.59091 7.06596 8.59091C7.42147 8.59091 7.72048 8.85748 7.76113 9.21066L8.71832 17.5272C8.75642 17.8736 9.0566 18.1364 9.41433 18.1364H14.5884C14.9461 18.1364 15.2463 17.8736 15.2844 17.5272L15.2848 17.524L16.2395 9.21083Z" stroke="currentColor" stroke-width="0.3"/>
</svg>
