<svg width="19" height="18" viewBox="0 0 19 18" fill="none" xmlns="http://www.w3.org/2000/svg">
<path d="M12.8279 18C14.5508 18 15.9337 16.6625 16.0017 14.9395L16.3644 3.74055H18.0647C18.314 3.74055 18.5181 3.53652 18.5181 3.28715C18.5181 3.03778 18.314 2.83375 18.0647 2.83375H13.304V1.8136C13.304 0.816121 12.4878 0 11.4904 0H8.04452C7.04704 0 6.23092 0.816121 6.23092 1.8136V2.83375H1.44754C1.19817 2.83375 0.994141 3.03778 0.994141 3.28715C0.994141 3.53652 1.19817 3.74055 1.44754 3.74055H3.14779L3.51051 14.9395C3.57852 16.6625 4.9614 18 6.68432 18H12.8279ZM7.13772 1.8136C7.13772 1.31486 7.54578 0.906801 8.04452 0.906801H11.4904C11.9891 0.906801 12.3972 1.31486 12.3972 1.8136V2.83375H7.13772V1.8136ZM4.43998 14.8942L4.07726 3.71788H15.4803L15.0949 14.8942C15.0496 16.1184 14.0521 17.0932 12.8279 17.0932H6.70699C5.48281 17.0932 4.48532 16.1411 4.43998 14.8942Z" fill="black" stroke="black" stroke-width="0.3"/>
<path d="M9.76785 14.1908C10.0172 14.1908 10.2213 13.9867 10.2213 13.7374V6.95902C10.2213 6.70965 10.0172 6.50562 9.76785 6.50562C9.51848 6.50562 9.31445 6.70965 9.31445 6.95902V13.7374C9.31445 13.9867 9.51848 14.1908 9.76785 14.1908Z" fill="black" stroke="black" stroke-width="0.3"/>
<path d="M7.04715 14.1908C7.29652 14.1908 7.50055 13.9867 7.50055 13.7374V6.95902C7.50055 6.70965 7.29652 6.50562 7.04715 6.50562C6.79778 6.50562 6.59375 6.70965 6.59375 6.95902V13.7374C6.59375 13.9867 6.79778 14.1908 7.04715 14.1908Z" fill="black" stroke="black" stroke-width="0.3"/>
<path d="M12.4886 14.1908C12.7379 14.1908 12.942 13.9867 12.942 13.7374V6.95902C12.942 6.70965 12.7379 6.50562 12.4886 6.50562C12.2392 6.50562 12.0352 6.70965 12.0352 6.95902V13.7374C12.0352 13.9867 12.2392 14.1908 12.4886 14.1908Z" fill="black" stroke="black" stroke-width="0.3"/>
</svg>
