<svg width="24" height="24" viewBox="0 0 24 24" xmlns="http://www.w3.org/2000/svg">
<g id="arrow-down-line-down">
<path id="icon" d="M12.8 10.3042V10.7796L13.1398 10.4472L15.8694 7.77745C16.1852 7.46851 16.6917 7.47412 17.0007 7.78998C17.3096 8.10584 17.304 8.61234 16.9882 8.92128L12 13.8001L7.01185 8.92128C6.69599 8.61234 6.69037 8.10584 6.99931 7.78998C7.30825 7.47411 7.81476 7.4685 8.13062 7.77744L10.8602 10.4472L11.2 10.7796V10.3042V1C11.2 0.558172 11.5582 0.2 12 0.2C12.4418 0.2 12.8 0.558172 12.8 1V10.3042ZM4.2 17C4.2 16.5582 4.55817 16.2 5 16.2H19C19.4418 16.2 19.8 16.5582 19.8 17C19.8 17.4418 19.4418 17.8 19 17.8H5C4.55817 17.8 4.2 17.4418 4.2 17Z" stroke-width="0.4" fill='currentColor'/>
</g>
</svg>
