<svg width="24" height="24" viewBox="0 0 24 24" fill="none" xmlns="http://www.w3.org/2000/svg">
<path d="M18.7716 8.53606C19.0761 8.2316 19.0761 7.73796 18.7716 7.43349L16.5665 5.22835C16.262 4.92388 15.7684 4.92388 15.4639 5.22835L14.0661 6.62616L17.3738 9.93387L18.7716 8.53606Z" fill="currentColor"/>
<path d="M16.2044 11.1033L8.30768 19H5V15.6923L12.8967 7.79561L16.2044 11.1033Z" fill="currentColor"/>
<path d="M18.7716 8.53606C19.0761 8.2316 19.0761 7.73796 18.7716 7.43349L16.5665 5.22835C16.262 4.92388 15.7684 4.92388 15.4639 5.22835L14.0661 6.62616L17.3738 9.93387L18.7716 8.53606Z" stroke="currentColor" stroke-width="0"/>
<path d="M16.2044 11.1033L8.30768 19H5V15.6923L12.8967 7.79561L16.2044 11.1033Z" stroke="currentColor" stroke-width="0"/>
</svg>
