<svg width="24" height="24" viewBox="0 0 24 24" xmlns="http://www.w3.org/2000/svg">
<path id="icon" fill-rule="evenodd" clip-rule="evenodd" d="M10.5444 3C6.37776 3 3 6.37775 3 10.5444C3 14.7111 6.37776 18.0888 10.5444 18.0888C11.5815 18.0888 12.5696 17.8796 13.469 17.501C14.3729 17.1206 15.4586 17.1795 16.1521 17.873L19.4187 21.1396C19.8939 21.6148 20.6644 21.6148 21.1396 21.1396V21.1396C21.6148 20.6644 21.6148 19.8939 21.1396 19.4187L17.873 16.1522C17.1795 15.4587 17.1206 14.3729 17.5011 13.469C17.8796 12.5696 18.0889 11.5814 18.0889 10.5444C18.0889 6.37775 14.7111 3 10.5444 3ZM5.43369 10.5444C5.43369 7.72183 7.72184 5.43368 10.5444 5.43368C13.367 5.43368 15.6552 7.72183 15.6552 10.5444C15.6552 13.367 13.367 15.6551 10.5444 15.6551C7.72184 15.6551 5.43369 13.367 5.43369 10.5444Z"/>
</svg>
