<svg width="26" height="22" viewBox="0 0 26 22" fill="none" xmlns="http://www.w3.org/2000/svg">
<path d="M2.1709 19.7081C3.35644 19.2957 5.17632 18.8343 7.38259 18.8343C9.10177 18.8343 10.7911 19.1174 12.4145 19.6765V3.47324C10.8125 2.60824 9.12138 2.1709 7.38171 2.1709C4.83119 2.1709 2.60642 3.04908 2.46006 3.19544C2.31369 3.34181 2.10878 3.54763 2.10878 4.07362C2.10878 4.93324 2.1709 19.7081 2.1709 19.7081Z" fill="transparent"/>
<path d="M13.5855 3.49724V19.7081C14.7707 19.2957 16.5906 18.834 18.7974 18.834C20.5166 18.834 22.2056 19.1171 23.8291 19.6762V4.1651C23.829 3.63453 23.8291 3.48817 23.5363 3.19544C23.2435 2.90272 20.5321 2.1709 18.796 2.1709C16.2422 2.1709 14.2962 3.10206 13.5855 3.49724Z" fill="transparent"/>
<path fill-rule="evenodd" clip-rule="evenodd" d="M18.7971 20.0049C16.4902 20.0049 14.6452 20.5472 13.5855 20.9545V19.7081C14.7707 19.2957 16.5906 18.834 18.7974 18.834C20.5166 18.834 22.2056 19.1171 23.8291 19.6762V4.1651C23.829 3.63453 23.8291 3.48817 23.5363 3.19544C23.2435 2.90272 20.5321 2.1709 18.796 2.1709C16.2422 2.1709 14.2962 3.10206 13.5855 3.49724V2.1594C14.6341 1.66272 16.5007 1 18.796 1C20.8471 1 24.1218 2.02454 24.4145 2.31727C24.7072 2.60999 24.9999 2.90272 25 3.63453V20.521C25 20.716 24.9031 20.898 24.7412 21.0066C24.5796 21.1158 24.3742 21.1366 24.1941 21.0631C22.4667 20.3609 20.651 20.0049 18.7971 20.0049ZM12.4145 19.6765V20.9545C10.7968 20.3466 9.10635 20.0052 7.38259 20.0052C4.78992 20.0052 2.78036 20.6902 1.81348 21.0986C1.63287 21.175 1.42592 21.1559 1.26199 21.047C1.09836 20.9387 1 20.7555 1 20.5591V3.63453C1 3.04908 1.36332 2.55103 1.73181 2.31727C2.00083 2.14661 3.99839 1 7.38171 1C9.11775 1 10.8065 1.38947 12.4145 2.1594V3.47324C10.8125 2.60824 9.12138 2.1709 7.38171 2.1709C4.83119 2.1709 2.60642 3.04908 2.46006 3.19544C2.31369 3.34181 2.10878 3.54763 2.10878 4.07362C2.10878 4.93324 2.1709 19.7081 2.1709 19.7081C3.35644 19.2957 5.17632 18.8343 7.38259 18.8343C9.10177 18.8343 10.7911 19.1174 12.4145 19.6765Z" fill="#333"/>
<path d="M13.5855 3.49724V19.7081M13.5855 3.49724C14.2962 3.10206 16.2422 2.1709 18.796 2.1709C20.5321 2.1709 23.2435 2.90272 23.5363 3.19544C23.8291 3.48817 23.829 3.63453 23.8291 4.1651M13.5855 3.49724V2.1594C14.6341 1.66272 16.5007 1 18.796 1C20.8471 1 24.1218 2.02454 24.4145 2.31727C24.7072 2.60999 24.9999 2.90272 25 3.63453V20.521C25 20.716 24.9031 20.898 24.7412 21.0066C24.5796 21.1158 24.3742 21.1366 24.1941 21.0631C22.4667 20.3609 20.651 20.0049 18.7971 20.0049C16.4902 20.0049 14.6452 20.5472 13.5855 20.9545V19.7081M13.5855 19.7081C14.7707 19.2957 16.5906 18.834 18.7974 18.834C20.5166 18.834 22.2056 19.1171 23.8291 19.6762M23.8291 19.6762C23.8291 19.6762 23.8292 4.69566 23.8291 4.1651M23.8291 19.6762V4.1651M12.4145 19.6765C10.7911 19.1174 9.10177 18.8343 7.38259 18.8343C5.17632 18.8343 3.35644 19.2957 2.1709 19.7081C2.1709 19.7081 2.10878 4.93324 2.10878 4.07362C2.10878 3.54763 2.31369 3.34181 2.46006 3.19544C2.60642 3.04908 4.83119 2.1709 7.38171 2.1709C9.12138 2.1709 10.8125 2.60824 12.4145 3.47324M12.4145 19.6765V3.47324M12.4145 19.6765V20.9545C10.7968 20.3466 9.10635 20.0052 7.38259 20.0052C4.78992 20.0052 2.78036 20.6902 1.81348 21.0986C1.63287 21.175 1.42592 21.1559 1.26199 21.047C1.09836 20.9387 1 20.7555 1 20.5591V3.63453C1 3.04908 1.36332 2.55103 1.73181 2.31727C2.00083 2.14661 3.99839 1 7.38171 1C9.11775 1 10.8065 1.38947 12.4145 2.1594V3.47324" stroke="#333" stroke-width="1"/>
</svg>
