<svg xmlns="http://www.w3.org/2000/svg" width="108" height="13" viewBox="0 0 108 13" fill="none">
  <path d="M0.8773 0V9.86701H0V0H0.8773Z" fill="#687074"/>
  <path d="M9.68824 6.63067C9.68824 6.80479 9.68377 6.94368 9.67539 7.04827H4.67013C4.68727 7.66599 4.9065 8.19006 5.32783 8.62085C5.74934 9.05163 6.26529 9.26703 6.87605 9.26703C7.29719 9.26703 7.67996 9.1647 8.02399 8.96024C8.36801 8.75596 8.63027 8.50571 8.81095 8.20985L9.46901 8.73184C8.79809 9.59323 7.93365 10.024 6.87605 10.024C5.98124 10.024 5.23768 9.71949 4.64424 9.11024C4.05081 8.50137 3.75391 7.73572 3.75391 6.81346C3.75391 5.89969 4.04615 5.1363 4.63121 4.52291C5.21589 3.90952 5.93821 3.60254 6.79837 3.60254C7.70995 3.60254 8.41924 3.88785 8.92717 4.45752C9.43437 5.02738 9.68824 5.75195 9.68824 6.63067ZM4.68299 6.34348H8.79791C8.77202 5.75195 8.58501 5.27123 8.23689 4.90131C7.88857 4.53177 7.40894 4.34671 6.79837 4.34671C6.23083 4.34671 5.74692 4.54477 5.34702 4.9405C4.94729 5.33662 4.72564 5.80415 4.68299 6.34348Z" fill="#687074"/>
  <path d="M16.267 6.12168V5.92588C16.267 4.87322 15.7294 4.34671 14.6545 4.34671C13.9322 4.34671 13.3343 4.58585 12.8614 5.06431L12.3709 4.47711C12.9472 3.89444 13.7387 3.60254 14.7449 3.60254C15.4325 3.60254 15.996 3.794 16.4346 4.17711C16.8733 4.56022 17.0927 5.10822 17.0927 5.82167V8.49684C17.0927 9.04522 17.127 9.5022 17.1961 9.86741H16.4089C16.3488 9.51935 16.3188 9.18863 16.3188 8.87562H16.2929C15.7684 9.64128 15.0369 10.024 14.0998 10.024C13.5582 10.024 13.0743 9.86949 12.6485 9.56062C12.2227 9.25214 12.0098 8.78875 12.0098 8.17065C12.0098 7.86612 12.0614 7.59871 12.1646 7.36806C12.2679 7.13759 12.4227 6.94839 12.6291 6.80046C12.8355 6.65253 13.059 6.53286 13.3 6.44166C13.5407 6.35007 13.8372 6.28053 14.19 6.23286C14.5428 6.18518 14.8715 6.15447 15.1772 6.14127C15.4821 6.12827 15.8455 6.12168 16.267 6.12168ZM16.267 6.81365H16.0088C15.5961 6.81365 15.2284 6.8291 14.906 6.85944C14.5834 6.88978 14.2609 6.94858 13.9385 7.03564C13.6159 7.12251 13.3645 7.25763 13.1836 7.44023C13.0031 7.62284 12.913 7.85368 12.913 8.13183C12.913 8.53209 13.0502 8.82606 13.3257 9.01281C13.6006 9.20012 13.9363 9.29359 14.3319 9.29359C14.9253 9.29359 15.396 9.0978 15.7445 8.70602C16.0927 8.31443 16.2668 7.83597 16.2668 7.27044L16.267 6.81365Z" fill="#687074"/>
  <path d="M20.318 5.10351C20.318 4.58152 20.3009 4.13358 20.2666 3.75933H21.1052C21.1394 4.19426 21.1566 4.54232 21.1566 4.80351H21.1825C21.3544 4.44659 21.6146 4.15733 21.9629 3.93553C22.3114 3.71354 22.6962 3.60254 23.1177 3.60254C23.3496 3.60254 23.5432 3.6244 23.6981 3.66793L23.5819 4.50331C23.4442 4.45111 23.2379 4.42492 22.9626 4.42492C22.4552 4.42492 22.0339 4.61864 21.6986 5.0059C21.3629 5.39315 21.1953 5.96961 21.1953 6.73507V9.8676H20.318V5.10351Z" fill="#687074"/>
  <path d="M25.8779 3.75933H26.7165C26.7508 4.19426 26.7679 4.54232 26.7679 4.80351H26.7938C26.9573 4.45545 27.2343 4.16825 27.6258 3.94212C28.017 3.71598 28.4275 3.60254 28.8578 3.60254C29.6058 3.60254 30.1758 3.82905 30.5669 4.28132C30.9584 4.73397 31.1542 5.34736 31.1542 6.12149V9.86742H30.2769V6.48689C30.2769 5.79963 30.1545 5.27123 29.9092 4.90131C29.6641 4.53177 29.2402 4.34671 28.6385 4.34671C28.1312 4.34671 27.6988 4.55363 27.342 4.9667C26.9851 5.38015 26.8066 5.96961 26.8066 6.73507V9.8676H25.9293V5.1037C25.9293 4.5817 25.9122 4.13358 25.8779 3.75933Z" fill="#687074"/>
  <path d="M35.2759 0.965806C35.4003 1.08811 35.4629 1.23566 35.4629 1.4096C35.4629 1.58372 35.4003 1.73184 35.2759 1.85338C35.1509 1.97531 35.0067 2.03599 34.8437 2.03599C34.6802 2.03599 34.5362 1.97512 34.4116 1.85338C34.287 1.73184 34.2246 1.58372 34.2246 1.4096C34.2246 1.23566 34.287 1.08811 34.4116 0.965806C34.5362 0.844259 34.6804 0.783204 34.8437 0.783204C35.0067 0.783015 35.1509 0.844259 35.2759 0.965806ZM35.2822 3.75894V9.86704H34.4049V3.75894H35.2822Z" fill="#687074"/>
  <path d="M38.5332 3.75933H39.3718C39.406 4.19426 39.4234 4.54232 39.4234 4.80351H39.4492C39.6124 4.45545 39.8899 4.16825 40.2813 3.94212C40.6724 3.71598 41.083 3.60254 41.513 3.60254C42.2614 3.60254 42.831 3.82905 43.2226 4.28132C43.6137 4.73397 43.8095 5.34736 43.8095 6.12149V9.86742H42.9322V6.48689C42.9322 5.79963 42.8098 5.27123 42.5645 4.90131C42.3194 4.53177 41.8958 4.34671 41.294 4.34671C40.7862 4.34671 40.3539 4.55363 39.9974 4.9667C39.6405 5.38015 39.4621 5.96961 39.4621 6.73507V9.8676H38.5848V5.1037C38.5848 4.5817 38.5675 4.13358 38.5332 3.75933Z" fill="#687074"/>
  <path d="M46.7379 11.7728L47.3697 11.0944C47.6191 11.4159 47.9547 11.6837 48.3758 11.897C48.7974 12.1101 49.2315 12.2166 49.6789 12.2166C50.4959 12.2166 51.0934 11.9946 51.4721 11.5508C51.8504 11.1074 52.0396 10.5285 52.0396 9.81522V8.66683H52.0137C51.7902 9.03223 51.4656 9.32375 51.0398 9.54102C50.614 9.75868 50.1776 9.86742 49.7305 9.86742C48.8015 9.86742 48.049 9.57589 47.4728 8.99284C46.8965 8.41016 46.6084 7.66599 46.6084 6.76108C46.6084 5.8735 46.8988 5.12537 47.4794 4.51632C48.0598 3.90745 48.8098 3.60254 49.7305 3.60254C50.1863 3.60254 50.6227 3.70939 51.0398 3.92253C51.4568 4.13585 51.7819 4.43359 52.0137 4.8167H52.0396V3.75952H52.9169V9.81522C52.9169 10.1891 52.8672 10.546 52.7687 10.8856C52.6696 11.2248 52.5083 11.5621 52.2848 11.897C52.0609 12.2317 51.7237 12.4992 51.272 12.6996C50.8205 12.8995 50.2765 12.9996 49.6402 12.9996C49.0898 12.9996 48.5588 12.8908 48.0471 12.6734C47.5354 12.4557 47.099 12.1557 46.7379 11.7728ZM48.1505 5.03812C47.7418 5.49962 47.5377 6.06496 47.5377 6.73488C47.5377 7.40518 47.7418 7.96826 48.1505 8.42505C48.5588 8.88184 49.1157 9.11005 49.8209 9.11005C50.5002 9.11005 51.0571 8.89051 51.4915 8.45125C51.9256 8.01198 52.143 7.43986 52.143 6.73488C52.143 6.0823 51.9214 5.52111 51.4786 5.05112C51.0355 4.58152 50.483 4.34653 49.8209 4.34653C49.1157 4.34672 48.5588 4.57737 48.1505 5.03812Z" fill="#687074"/>
  <path d="M60.05 4.6991L59.3791 5.20828C59.2502 4.9471 59.0522 4.7383 58.7857 4.5817C58.519 4.42491 58.2222 4.34671 57.8953 4.34671C57.5426 4.34671 57.2419 4.42717 56.9925 4.5883C56.7428 4.74942 56.6185 4.9863 56.6185 5.29949C56.6185 5.5782 56.7299 5.79567 56.9538 5.95208C57.1773 6.10867 57.5472 6.23927 58.0634 6.34367C58.7769 6.49178 59.3037 6.70906 59.6436 6.99626C59.9832 7.28326 60.153 7.66203 60.153 8.13164C60.153 8.77575 59.9314 9.25232 59.4888 9.56081C59.0457 9.86967 58.5104 10.0242 57.8825 10.0242C56.8249 10.0242 56.0294 9.62846 55.4961 8.83661L56.1929 8.31443C56.3561 8.59314 56.5906 8.82154 56.8959 8.99981C57.2011 9.17827 57.5258 9.2674 57.87 9.2674C58.2826 9.2674 58.6223 9.18241 58.8889 9.01281C59.1554 8.84321 59.2892 8.57128 59.2892 8.19703C59.2892 7.8925 59.1489 7.65751 58.8699 7.49205C58.5901 7.32697 58.1364 7.17056 57.5087 7.02245C57.2851 6.97025 57.0916 6.91353 56.9283 6.85285C56.7647 6.79198 56.5865 6.70058 56.393 6.57866C56.1994 6.45674 56.0489 6.29373 55.9414 6.08907C55.8338 5.8848 55.7803 5.64755 55.7803 5.37788C55.7803 4.79483 55.9888 4.3533 56.406 4.05292C56.823 3.75292 57.3325 3.60254 57.9345 3.60254C58.3644 3.60254 58.7773 3.70053 59.1729 3.89632C59.5682 4.09231 59.8608 4.3599 60.05 4.6991Z" fill="#687074"/>
  <path d="M67.9838 8.83603H67.9579V9.86701H67.0806V0H67.9579V4.8161H67.9838C68.2332 4.43299 68.5642 4.13544 68.9771 3.92193C69.3899 3.7088 69.8199 3.60195 70.2673 3.60195C71.196 3.60195 71.9484 3.90874 72.5247 4.52232C73.101 5.13571 73.3891 5.8991 73.3891 6.81288C73.3891 7.72627 73.101 8.49004 72.5247 9.10305C71.9484 9.71644 71.196 10.0234 70.2673 10.0234C69.8199 10.0234 69.39 9.91883 68.9771 9.71041C68.5642 9.50161 68.2332 9.21009 67.9838 8.83603ZM71.8474 8.56825C72.2557 8.10279 72.4602 7.51747 72.4602 6.81288C72.4602 6.1079 72.2557 5.5207 71.8474 5.05072C71.4387 4.58111 70.8818 4.34612 70.1768 4.34612C69.5059 4.34612 68.9512 4.58111 68.5126 5.05072C68.0739 5.5207 67.8549 6.1079 67.8549 6.81288C67.8549 7.51747 68.0739 8.10279 68.5126 8.56825C68.9512 9.0339 69.5059 9.26662 70.1768 9.26662C70.8818 9.26662 71.4387 9.03408 71.8474 8.56825Z" fill="#687074"/>
  <path d="M81.4641 9.86706H80.6255C80.5909 9.43213 80.5739 9.08407 80.5739 8.82288H80.548C80.3845 9.17094 80.1071 9.45814 79.716 9.68427C79.3245 9.91041 78.9139 10.0235 78.484 10.0235C77.736 10.0235 77.1661 9.79734 76.7749 9.34469C76.3834 8.89242 76.188 8.27903 76.188 7.50452V3.75897H77.0649V7.13912C77.0649 7.82676 77.1877 8.35516 77.4328 8.72471C77.6777 9.09462 78.1011 9.27968 78.7033 9.27968C79.2107 9.27968 79.643 9.07314 79.9999 8.65969C80.3565 8.24624 80.5352 7.65679 80.5352 6.89094V3.75879H81.4125V8.52231C81.4125 9.04487 81.4296 9.49281 81.4641 9.86706Z" fill="#687074"/>
  <path d="M89.6685 8.83584C89.4187 9.21009 89.0881 9.50161 88.6752 9.71041C88.2624 9.91883 87.8322 10.0234 87.3849 10.0234C86.4562 10.0234 85.7036 9.71663 85.1273 9.10305C84.551 8.49004 84.2632 7.72627 84.2632 6.81287C84.2632 5.8991 84.551 5.1357 85.1273 4.52231C85.7036 3.90892 86.4562 3.60195 87.3849 3.60195C87.832 3.60195 88.2622 3.7088 88.6752 3.92193C89.0879 4.13525 89.4187 4.43299 89.6685 4.8161H89.6944V0H90.5713V9.86701H89.6944V8.83603H89.6685V8.83584ZM85.8049 5.05072C85.3962 5.5207 85.1921 6.10789 85.1921 6.81287C85.1921 7.51747 85.3962 8.10278 85.8049 8.56824C86.2132 9.03389 86.7701 9.26662 87.4755 9.26662C88.146 9.26662 88.7011 9.03389 89.1394 8.56824C89.578 8.10278 89.7974 7.51747 89.7974 6.81287C89.7974 6.10789 89.578 5.5207 89.1394 5.05072C88.7011 4.58111 88.146 4.34612 87.4755 4.34612C86.7701 4.34612 86.2132 4.58111 85.8049 5.05072Z" fill="#687074"/>
  <path d="M98.8534 8.83584C98.6036 9.21009 98.273 9.50161 97.8601 9.71041C97.4473 9.91883 97.017 10.0234 96.5698 10.0234C95.6411 10.0234 94.8884 9.71663 94.3123 9.10305C93.736 8.49004 93.4482 7.72627 93.4482 6.81287C93.4482 5.8991 93.736 5.1357 94.3123 4.52231C94.8886 3.90892 95.6413 3.60195 96.5698 3.60195C97.0169 3.60195 97.4471 3.7088 97.8601 3.92193C98.2728 4.13525 98.6036 4.43299 98.8534 4.8161H98.8793V0H99.7562V9.86701H98.8793V8.83603H98.8534V8.83584ZM94.9898 5.05072C94.5811 5.5207 94.377 6.10789 94.377 6.81287C94.377 7.51747 94.5811 8.10278 94.9898 8.56824C95.398 9.03389 95.955 9.26662 96.6603 9.26662C97.3309 9.26662 97.886 9.03389 98.3242 8.56824C98.7629 8.10278 98.9823 7.51747 98.9823 6.81287C98.9823 6.10789 98.7629 5.5207 98.3242 5.05072C97.886 4.58111 97.3309 4.34612 96.6603 4.34612C95.955 4.34612 95.398 4.58111 94.9898 5.05072Z" fill="#687074"/>
  <path d="M103.098 3.75977L105.149 8.91489H105.175L107.045 3.75977H108L104.994 11.447C104.797 11.9604 104.554 12.3478 104.265 12.6084C103.977 12.8696 103.588 13 103.098 13C102.831 13 102.569 12.9742 102.311 12.922L102.401 12.1128C102.608 12.1823 102.822 12.217 103.046 12.217C103.33 12.217 103.56 12.1279 103.736 11.9496C103.913 11.7712 104.07 11.4992 104.207 11.1338L104.698 9.85466L102.118 3.75977H103.098Z" fill="#687074"/>
</svg>