<svg xmlns="http://www.w3.org/2000/svg" width="109" height="22" viewBox="0 0 109 22" fill="none">
<path d="
    M 4.43622 0
    V 17.8513 
    H 16.636
    V 22
    H 0
    V 0
    H 4.43622
    Z
" fill="#54A323"/>
<path d="M44.2031 0.596917C44.8791 0.995046 45.4178 1.52933 45.819 2.19978C46.2204 2.87022 46.4212 3.60367 46.4212 4.39974V7.85691C46.4212 9.1978 45.8719 10.2455 44.7734 10.9996C45.7663 11.6703 46.3156 12.613 46.4212 13.8283V17.5997C46.4212 18.396 46.2204 19.1292 45.819 19.7997C45.4176 20.4701 44.8789 21.0044 44.2031 21.4023C43.5271 21.8005 42.7876 21.9996 41.985 21.9996H26.458V0H41.985C42.7876 0 43.5271 0.198973 44.2031 0.596917ZM40.1338 4.1483H30.894V8.92548H40.1338C41.1561 8.92548 41.985 8.10354 41.985 7.08947V5.98413C41.985 4.97042 41.1562 4.1483 40.1338 4.1483ZM40.1342 13.0742H30.894V17.8511H40.1342C41.1563 17.8511 41.9848 17.0294 41.9848 16.0157V14.9098C41.985 13.8961 41.1564 13.0742 40.1342 13.0742Z" fill="#54A323"/>
<path d="M75.7304 0.596917C76.4064 0.995046 76.9451 1.52933 77.3463 2.19978C77.7477 2.87022 77.9485 3.60367 77.9485 4.39974V17.5997C77.9485 18.396 77.7477 19.1292 77.3463 19.7997C76.9449 20.4701 76.4062 21.0044 75.7304 21.4023C75.0545 21.8005 74.315 21.9996 73.5123 21.9996H58.1327C58.0513 21.9996 57.9854 21.9342 57.9854 21.8535V0.146135C57.9854 0.0654004 58.0513 0 58.1327 0H73.5123C74.3151 0 75.0545 0.198973 75.7304 0.596917ZM71.0694 4.1483H62.5689C62.4875 4.1483 62.4216 4.2137 62.4216 4.29444V17.705C62.4216 17.7857 62.4875 17.8511 62.5689 17.8511H71.0783C72.4226 17.8511 73.5125 16.7704 73.5125 15.4369V6.57125C73.5123 5.23313 72.4185 4.1483 71.0694 4.1483Z" fill="#54A323"/>
<path d="M109 11.157C109 11.9533 108.799 12.6866 108.398 13.357C107.997 14.0276 107.458 14.5619 106.782 14.9599C106.106 15.358 105.366 15.5571 104.564 15.5571H101.236V22H96.8002V15.5571H93.4728C92.67 15.5571 91.9309 15.358 91.2547 14.9599C90.5787 14.5617 90.0401 14.0274 89.6388 13.357C89.2374 12.6866 89.0366 11.9531 89.0366 11.157V0H93.4728V11.4085H104.564V0H109V11.157H109Z" fill="#54A323"/>
</svg>