<svg width="180" height="77" viewBox="0 0 109 48" fill="none" xmlns="http://www.w3.org/2000/svg">
<path d="M4.43622 0V17.8513H16.636V22H0V0H4.43622Z" fill="#54A323"/>
<path d="M44.2031 0.596917C44.8791 0.995046 45.4178 1.52933 45.819 2.19978C46.2204 2.87022 46.4212 3.60367 46.4212 4.39974V7.85691C46.4212 9.1978 45.8719 10.2455 44.7734 10.9996C45.7663 11.6703 46.3156 12.613 46.4212 13.8283V17.5997C46.4212 18.396 46.2204 19.1292 45.819 19.7997C45.4176 20.4701 44.8789 21.0044 44.2031 21.4023C43.5271 21.8005 42.7876 21.9996 41.985 21.9996H26.458V0H41.985C42.7876 0 43.5271 0.198973 44.2031 0.596917ZM40.1338 4.1483H30.894V8.92548H40.1338C41.1561 8.92548 41.985 8.10354 41.985 7.08947V5.98413C41.985 4.97042 41.1562 4.1483 40.1338 4.1483ZM40.1342 13.0742H30.894V17.8511H40.1342C41.1563 17.8511 41.9848 17.0294 41.9848 16.0157V14.9098C41.985 13.8961 41.1564 13.0742 40.1342 13.0742Z" fill="#54A323"/>
<path d="M75.7304 0.596917C76.4064 0.995046 76.9451 1.52933 77.3463 2.19978C77.7477 2.87022 77.9485 3.60367 77.9485 4.39974V17.5997C77.9485 18.396 77.7477 19.1292 77.3463 19.7997C76.9449 20.4701 76.4062 21.0044 75.7304 21.4023C75.0545 21.8005 74.315 21.9996 73.5123 21.9996H58.1327C58.0513 21.9996 57.9854 21.9342 57.9854 21.8535V0.146135C57.9854 0.0654004 58.0513 0 58.1327 0H73.5123C74.3151 0 75.0545 0.198973 75.7304 0.596917ZM71.0694 4.1483H62.5689C62.4875 4.1483 62.4216 4.2137 62.4216 4.29444V17.705C62.4216 17.7857 62.4875 17.8511 62.5689 17.8511H71.0783C72.4226 17.8511 73.5125 16.7704 73.5125 15.4369V6.57125C73.5123 5.23313 72.4185 4.1483 71.0694 4.1483Z" fill="#54A323"/>
<path d="M109 11.157C109 11.9533 108.799 12.6866 108.398 13.357C107.997 14.0276 107.458 14.5619 106.782 14.9599C106.106 15.358 105.366 15.5571 104.564 15.5571H101.236V22H96.8002V15.5571H93.4728C92.67 15.5571 91.9309 15.358 91.2547 14.9599C90.5787 14.5617 90.0401 14.0274 89.6388 13.357C89.2374 12.6866 89.0366 11.9531 89.0366 11.157V0H93.4728V11.4085H104.564V0H109V11.157H109Z" fill="#54A323"/>
<path d="M0.8773 34V43.867H0V34H0.8773Z" fill="#687074"/>
<path d="M9.68824 40.6307C9.68824 40.8048 9.68377 40.9437 9.67539 41.0483H4.67013C4.68727 41.666 4.9065 42.1901 5.32783 42.6208C5.74934 43.0516 6.26529 43.267 6.87605 43.267C7.29719 43.267 7.67996 43.1647 8.02399 42.9602C8.36801 42.756 8.63027 42.5057 8.81095 42.2098L9.46901 42.7318C8.79809 43.5932 7.93365 44.024 6.87605 44.024C5.98124 44.024 5.23768 43.7195 4.64424 43.1102C4.05081 42.5014 3.75391 41.7357 3.75391 40.8135C3.75391 39.8997 4.04615 39.1363 4.63121 38.5229C5.21589 37.9095 5.93821 37.6025 6.79837 37.6025C7.70995 37.6025 8.41924 37.8878 8.92717 38.4575C9.43437 39.0274 9.68824 39.7519 9.68824 40.6307ZM4.68299 40.3435H8.79791C8.77202 39.752 8.58501 39.2712 8.23689 38.9013C7.88857 38.5318 7.40894 38.3467 6.79837 38.3467C6.23083 38.3467 5.74692 38.5448 5.34702 38.9405C4.94729 39.3366 4.72564 39.8042 4.68299 40.3435Z" fill="#687074"/>
<path d="M16.267 40.1217V39.9259C16.267 38.8732 15.7294 38.3467 14.6545 38.3467C13.9322 38.3467 13.3343 38.5858 12.8614 39.0643L12.3709 38.4771C12.9472 37.8944 13.7387 37.6025 14.7449 37.6025C15.4325 37.6025 15.996 37.794 16.4346 38.1771C16.8733 38.5602 17.0927 39.1082 17.0927 39.8217V42.4968C17.0927 43.0452 17.127 43.5022 17.1961 43.8674H16.4089C16.3488 43.5194 16.3188 43.1886 16.3188 42.8756H16.2929C15.7684 43.6413 15.0369 44.024 14.0998 44.024C13.5582 44.024 13.0743 43.8695 12.6485 43.5606C12.2227 43.2521 12.0098 42.7887 12.0098 42.1706C12.0098 41.8661 12.0614 41.5987 12.1646 41.3681C12.2679 41.1376 12.4227 40.9484 12.6291 40.8005C12.8355 40.6525 13.059 40.5329 13.3 40.4417C13.5407 40.3501 13.8372 40.2805 14.19 40.2329C14.5428 40.1852 14.8715 40.1545 15.1772 40.1413C15.4821 40.1283 15.8455 40.1217 16.267 40.1217ZM16.267 40.8136H16.0088C15.5961 40.8136 15.2284 40.8291 14.906 40.8594C14.5834 40.8898 14.2609 40.9486 13.9385 41.0356C13.6159 41.1225 13.3645 41.2576 13.1836 41.4402C13.0031 41.6228 12.913 41.8537 12.913 42.1318C12.913 42.5321 13.0502 42.8261 13.3257 43.0128C13.6006 43.2001 13.9363 43.2936 14.3319 43.2936C14.9253 43.2936 15.396 43.0978 15.7445 42.706C16.0927 42.3144 16.2668 41.836 16.2668 41.2704L16.267 40.8136Z" fill="#687074"/>
<path d="M20.318 39.1035C20.318 38.5815 20.3009 38.1336 20.2666 37.7593H21.1052C21.1394 38.1943 21.1566 38.5423 21.1566 38.8035H21.1825C21.3544 38.4466 21.6146 38.1573 21.9629 37.9355C22.3114 37.7135 22.6962 37.6025 23.1177 37.6025C23.3496 37.6025 23.5432 37.6244 23.6981 37.6679L23.5819 38.5033C23.4442 38.4511 23.2379 38.4249 22.9626 38.4249C22.4552 38.4249 22.0339 38.6186 21.6986 39.0059C21.3629 39.3932 21.1953 39.9696 21.1953 40.7351V43.8676H20.318V39.1035Z" fill="#687074"/>
<path d="M25.8779 37.7593H26.7165C26.7508 38.1943 26.7679 38.5423 26.7679 38.8035H26.7938C26.9573 38.4554 27.2343 38.1683 27.6258 37.9421C28.017 37.716 28.4275 37.6025 28.8578 37.6025C29.6058 37.6025 30.1758 37.8291 30.5669 38.2813C30.9584 38.734 31.1542 39.3474 31.1542 40.1215V43.8674H30.2769V40.4869C30.2769 39.7996 30.1545 39.2712 29.9092 38.9013C29.6641 38.5318 29.2402 38.3467 28.6385 38.3467C28.1312 38.3467 27.6988 38.5536 27.342 38.9667C26.9851 39.3801 26.8066 39.9696 26.8066 40.7351V43.8676H25.9293V39.1037C25.9293 38.5817 25.9122 38.1336 25.8779 37.7593Z" fill="#687074"/>
<path d="M35.2759 34.9658C35.4003 35.0881 35.4629 35.2357 35.4629 35.4096C35.4629 35.5837 35.4003 35.7318 35.2759 35.8534C35.1509 35.9753 35.0067 36.036 34.8437 36.036C34.6802 36.036 34.5362 35.9751 34.4116 35.8534C34.287 35.7318 34.2246 35.5837 34.2246 35.4096C34.2246 35.2357 34.287 35.0881 34.4116 34.9658C34.5362 34.8443 34.6804 34.7832 34.8437 34.7832C35.0067 34.783 35.1509 34.8443 35.2759 34.9658ZM35.2822 37.7589V43.867H34.4049V37.7589H35.2822Z" fill="#687074"/>
<path d="M38.5332 37.7593H39.3718C39.406 38.1943 39.4234 38.5423 39.4234 38.8035H39.4492C39.6124 38.4554 39.8899 38.1683 40.2813 37.9421C40.6724 37.716 41.083 37.6025 41.513 37.6025C42.2614 37.6025 42.831 37.8291 43.2226 38.2813C43.6137 38.734 43.8095 39.3474 43.8095 40.1215V43.8674H42.9322V40.4869C42.9322 39.7996 42.8098 39.2712 42.5645 38.9013C42.3194 38.5318 41.8958 38.3467 41.294 38.3467C40.7862 38.3467 40.3539 38.5536 39.9974 38.9667C39.6405 39.3801 39.4621 39.9696 39.4621 40.7351V43.8676H38.5848V39.1037C38.5848 38.5817 38.5675 38.1336 38.5332 37.7593Z" fill="#687074"/>
<path d="M46.7379 45.7728L47.3697 45.0944C47.6191 45.4159 47.9547 45.6837 48.3758 45.897C48.7974 46.1101 49.2315 46.2166 49.6789 46.2166C50.4959 46.2166 51.0934 45.9946 51.4721 45.5508C51.8504 45.1074 52.0396 44.5285 52.0396 43.8152V42.6668H52.0137C51.7902 43.0322 51.4656 43.3237 51.0398 43.541C50.614 43.7587 50.1776 43.8674 49.7305 43.8674C48.8015 43.8674 48.049 43.5759 47.4728 42.9928C46.8965 42.4102 46.6084 41.666 46.6084 40.7611C46.6084 39.8735 46.8988 39.1254 47.4794 38.5163C48.0598 37.9074 48.8098 37.6025 49.7305 37.6025C50.1863 37.6025 50.6227 37.7094 51.0398 37.9225C51.4568 38.1358 51.7819 38.4336 52.0137 38.8167H52.0396V37.7595H52.9169V43.8152C52.9169 44.1891 52.8672 44.546 52.7687 44.8856C52.6696 45.2248 52.5083 45.5621 52.2848 45.897C52.0609 46.2317 51.7237 46.4992 51.272 46.6996C50.8205 46.8995 50.2765 46.9996 49.6402 46.9996C49.0898 46.9996 48.5588 46.8908 48.0471 46.6734C47.5354 46.4557 47.099 46.1557 46.7379 45.7728ZM48.1505 39.0381C47.7418 39.4996 47.5377 40.065 47.5377 40.7349C47.5377 41.4052 47.7418 41.9683 48.1505 42.4251C48.5588 42.8818 49.1157 43.1101 49.8209 43.1101C50.5002 43.1101 51.0571 42.8905 51.4915 42.4512C51.9256 42.012 52.143 41.4399 52.143 40.7349C52.143 40.0823 51.9214 39.5211 51.4786 39.0511C51.0355 38.5815 50.483 38.3465 49.8209 38.3465C49.1157 38.3467 48.5588 38.5774 48.1505 39.0381Z" fill="#687074"/>
<path d="M60.05 38.6991L59.3791 39.2083C59.2502 38.9471 59.0522 38.7383 58.7857 38.5817C58.519 38.4249 58.2222 38.3467 57.8953 38.3467C57.5426 38.3467 57.2419 38.4272 56.9925 38.5883C56.7428 38.7494 56.6185 38.9863 56.6185 39.2995C56.6185 39.5782 56.7299 39.7957 56.9538 39.9521C57.1773 40.1087 57.5472 40.2393 58.0634 40.3437C58.7769 40.4918 59.3037 40.7091 59.6436 40.9963C59.9832 41.2833 60.153 41.662 60.153 42.1316C60.153 42.7757 59.9314 43.2523 59.4888 43.5608C59.0457 43.8697 58.5104 44.0242 57.8825 44.0242C56.8249 44.0242 56.0294 43.6285 55.4961 42.8366L56.1929 42.3144C56.3561 42.5931 56.5906 42.8215 56.8959 42.9998C57.2011 43.1783 57.5258 43.2674 57.87 43.2674C58.2826 43.2674 58.6223 43.1824 58.8889 43.0128C59.1554 42.8432 59.2892 42.5713 59.2892 42.197C59.2892 41.8925 59.1489 41.6575 58.8699 41.4921C58.5901 41.327 58.1364 41.1706 57.5087 41.0224C57.2851 40.9702 57.0916 40.9135 56.9283 40.8528C56.7647 40.792 56.5865 40.7006 56.393 40.5787C56.1994 40.4567 56.0489 40.2937 55.9414 40.0891C55.8338 39.8848 55.7803 39.6475 55.7803 39.3779C55.7803 38.7948 55.9888 38.3533 56.406 38.0529C56.823 37.7529 57.3325 37.6025 57.9345 37.6025C58.3644 37.6025 58.7773 37.7005 59.1729 37.8963C59.5682 38.0923 59.8608 38.3599 60.05 38.6991Z" fill="#687074"/>
<path d="M67.9838 42.836H67.9579V43.867H67.0806V34H67.9579V38.8161H67.9838C68.2332 38.433 68.5642 38.1354 68.9771 37.9219C69.3899 37.7088 69.8199 37.602 70.2673 37.602C71.196 37.602 71.9484 37.9087 72.5247 38.5223C73.101 39.1357 73.3891 39.8991 73.3891 40.8129C73.3891 41.7263 73.101 42.49 72.5247 43.1031C71.9484 43.7164 71.196 44.0234 70.2673 44.0234C69.8199 44.0234 69.39 43.9188 68.9771 43.7104C68.5642 43.5016 68.2332 43.2101 67.9838 42.836ZM71.8474 42.5682C72.2557 42.1028 72.4602 41.5175 72.4602 40.8129C72.4602 40.1079 72.2557 39.5207 71.8474 39.0507C71.4387 38.5811 70.8818 38.3461 70.1768 38.3461C69.5059 38.3461 68.9512 38.5811 68.5126 39.0507C68.0739 39.5207 67.8549 40.1079 67.8549 40.8129C67.8549 41.5175 68.0739 42.1028 68.5126 42.5682C68.9512 43.0339 69.5059 43.2666 70.1768 43.2666C70.8818 43.2666 71.4387 43.0341 71.8474 42.5682Z" fill="#687074"/>
<path d="M81.4641 43.8671H80.6255C80.5909 43.4321 80.5739 43.0841 80.5739 42.8229H80.548C80.3845 43.1709 80.1071 43.4581 79.716 43.6843C79.3245 43.9104 78.9139 44.0235 78.484 44.0235C77.736 44.0235 77.1661 43.7973 76.7749 43.3447C76.3834 42.8924 76.188 42.279 76.188 41.5045V37.759H77.0649V41.1391C77.0649 41.8268 77.1877 42.3552 77.4328 42.7247C77.6777 43.0946 78.1011 43.2797 78.7033 43.2797C79.2107 43.2797 79.643 43.0731 79.9999 42.6597C80.3565 42.2462 80.5352 41.6568 80.5352 40.8909V37.7588H81.4125V42.5223C81.4125 43.0449 81.4296 43.4928 81.4641 43.8671Z" fill="#687074"/>
<path d="M89.6685 42.8358C89.4187 43.2101 89.0881 43.5016 88.6752 43.7104C88.2624 43.9188 87.8322 44.0234 87.3849 44.0234C86.4562 44.0234 85.7036 43.7166 85.1273 43.1031C84.551 42.49 84.2632 41.7263 84.2632 40.8129C84.2632 39.8991 84.551 39.1357 85.1273 38.5223C85.7036 37.9089 86.4562 37.6019 87.3849 37.6019C87.832 37.6019 88.2622 37.7088 88.6752 37.9219C89.0879 38.1353 89.4187 38.433 89.6685 38.8161H89.6944V34H90.5713V43.867H89.6944V42.836H89.6685V42.8358ZM85.8049 39.0507C85.3962 39.5207 85.1921 40.1079 85.1921 40.8129C85.1921 41.5175 85.3962 42.1028 85.8049 42.5682C86.2132 43.0339 86.7701 43.2666 87.4755 43.2666C88.146 43.2666 88.7011 43.0339 89.1394 42.5682C89.578 42.1028 89.7974 41.5175 89.7974 40.8129C89.7974 40.1079 89.578 39.5207 89.1394 39.0507C88.7011 38.5811 88.146 38.3461 87.4755 38.3461C86.7701 38.3461 86.2132 38.5811 85.8049 39.0507Z" fill="#687074"/>
<path d="M98.8534 42.8358C98.6036 43.2101 98.273 43.5016 97.8601 43.7104C97.4473 43.9188 97.017 44.0234 96.5698 44.0234C95.6411 44.0234 94.8884 43.7166 94.3123 43.1031C93.736 42.49 93.4482 41.7263 93.4482 40.8129C93.4482 39.8991 93.736 39.1357 94.3123 38.5223C94.8886 37.9089 95.6413 37.6019 96.5698 37.6019C97.0169 37.6019 97.4471 37.7088 97.8601 37.9219C98.2728 38.1353 98.6036 38.433 98.8534 38.8161H98.8793V34H99.7562V43.867H98.8793V42.836H98.8534V42.8358ZM94.9898 39.0507C94.5811 39.5207 94.377 40.1079 94.377 40.8129C94.377 41.5175 94.5811 42.1028 94.9898 42.5682C95.398 43.0339 95.955 43.2666 96.6603 43.2666C97.3309 43.2666 97.886 43.0339 98.3242 42.5682C98.7629 42.1028 98.9823 41.5175 98.9823 40.8129C98.9823 40.1079 98.7629 39.5207 98.3242 39.0507C97.886 38.5811 97.3309 38.3461 96.6603 38.3461C95.955 38.3461 95.398 38.5811 94.9898 39.0507Z" fill="#687074"/>
<path d="M103.098 37.7598L105.149 42.9149H105.175L107.045 37.7598H108L104.994 45.447C104.797 45.9604 104.554 46.3478 104.265 46.6084C103.977 46.8696 103.588 47 103.098 47C102.831 47 102.569 46.9742 102.311 46.922L102.401 46.1128C102.608 46.1823 102.822 46.217 103.046 46.217C103.33 46.217 103.56 46.1279 103.736 45.9496C103.913 45.7712 104.07 45.4992 104.207 45.1338L104.698 43.8547L102.118 37.7598H103.098Z" fill="#687074"/>
</svg>
