<svg width="22" height="23" viewBox="0 0 22 23" fill="none" xmlns="http://www.w3.org/2000/svg">
<path fill-rule="evenodd" clip-rule="evenodd" d="M4.68554 20.6303H17.5199C17.837 20.6303 18.1472 20.5692 18.4275 20.4427C19.1094 20.1351 19.6149 19.4406 19.6149 18.2964V9.6119C19.6149 8.85953 19.2388 8.15721 18.6082 7.73501L12.2954 2.84944C11.5049 2.32069 10.4876 2.32149 9.70531 2.84944L3.39415 7.7334C2.76111 8.15721 2.38503 8.85872 2.38503 9.6119V18.3465C2.38503 19.6058 3.417 20.6303 4.68554 20.6303ZM21.0833 18.2964C21.0833 20.6303 19.4338 22.0833 17.5199 22.0833H4.68554C2.60774 22.0833 0.916626 20.4066 0.916626 18.3457V9.61109C0.916626 8.37517 1.53417 7.22401 2.56858 6.53138L8.87648 1.64985C10.1613 0.784461 11.8272 0.782846 13.1202 1.64823L19.4338 6.5338C20.4649 7.22482 21.0833 8.37679 21.0833 9.6119V18.2964Z" fill="#333"/>
<path d="M4.68554 20.6303H17.5199C17.837 20.6303 18.1472 20.5692 18.4275 20.4427C19.1094 20.1351 19.6149 19.4406 19.6149 18.2964V9.6119C19.6149 8.85953 19.2388 8.15721 18.6082 7.73501L12.2954 2.84944C11.5049 2.32069 10.4876 2.32149 9.70531 2.84944L3.39415 7.7334C2.76111 8.15721 2.38503 8.85872 2.38503 9.6119V18.3465C2.38503 19.6058 3.417 20.6303 4.68554 20.6303Z" fill="transparent"/>
<path d="M17.5199 20.6303C16.2513 20.6303 5.95408 20.6303 4.68554 20.6303M17.5199 20.6303C17.5199 21.1977 17.5199 22.0833 17.5199 22.0833M17.5199 20.6303H4.68554M17.5199 20.6303C17.837 20.6303 18.1472 20.5692 18.4275 20.4427M4.68554 20.6303C3.417 20.6303 2.38503 19.6058 2.38503 18.3465V9.6119C2.38503 8.85872 2.76111 8.15721 3.39415 7.7334L9.70531 2.84944C10.4876 2.32149 11.5049 2.32069 12.2954 2.84944L18.6082 7.73501C19.2388 8.15721 19.6149 8.85953 19.6149 9.6119V18.2964M19.6149 18.2964C20.1883 18.2964 20.5098 18.2964 21.0833 18.2964M19.6149 18.2964C19.6149 19.4406 19.1094 20.1351 18.4275 20.4427M19.6149 18.2964L19.9999 20L18.4275 20.4427M21.0833 18.2964V9.6119C21.0833 8.37679 20.4649 7.22482 19.4338 6.5338L13.1202 1.64823C11.8272 0.782846 10.1613 0.784461 8.87648 1.64985L2.56858 6.53138C1.53417 7.22401 0.916626 8.37517 0.916626 9.61109V18.3457C0.916626 20.4066 2.60774 22.0833 4.68554 22.0833M21.0833 18.2964C21.0833 20.6303 19.4338 22.0833 17.5199 22.0833M4.68554 22.0833C6.76333 22.0833 17.5199 22.0833 17.5199 22.0833M4.68554 22.0833H17.5199M17.5199 22.0833L18.4275 20.4427" stroke="#333" stroke-width="0.2"/>
</svg>
