<svg width="40" height="26" viewBox="0 0 40 26" fill="none" xmlns="http://www.w3.org/2000/svg">
<path d="M25.3829 3.27637H14.5781V22.6906H25.3829V3.27637Z" fill="#FF5F00"/>
<path d="M15.2638 12.983C15.2638 9.03844 17.1161 5.53978 19.963 3.27592C17.8707 1.62949 15.2295 0.634766 12.3483 0.634766C5.52244 0.634766 0 6.1572 0 12.983C0 19.8089 5.52244 25.3313 12.3483 25.3313C15.2295 25.3313 17.8707 24.3366 19.963 22.6901C17.1161 20.4606 15.2638 16.9276 15.2638 12.983Z" fill="#EB001B"/>
<path d="M39.9592 12.983C39.9592 19.8089 34.4367 25.3313 27.6109 25.3313C24.7296 25.3313 22.0884 24.3366 19.9961 22.6901C22.8774 20.4263 24.6953 16.9276 24.6953 12.983C24.6953 9.03844 22.8431 5.53978 19.9961 3.27592C22.0884 1.62949 24.7296 0.634766 27.6109 0.634766C34.4367 0.634766 39.9592 6.19149 39.9592 12.983Z" fill="#F79E1B"/>
</svg>
