<svg width="71" height="20" viewBox="0 0 71 20" fill="none" xmlns="http://www.w3.org/2000/svg">
<g clip-path="url(#clip0_597_23221)">
<path fill-rule="evenodd" clip-rule="evenodd" d="M51.2109 9.03418V19.9986H57.3316V13.5012H64.2684C67.1879 13.4796 69.668 11.6236 70.6031 9.03418H51.2109Z" fill="#57A637"/>
<path fill-rule="evenodd" clip-rule="evenodd" d="M50.3945 -0.000976562C50.7511 4.48069 55.0114 8.01933 60.2145 8.01933C60.2315 8.01933 70.8571 8.01933 70.8571 8.01933C70.9356 7.6083 70.9767 7.18408 70.9767 6.75029C70.9767 3.03779 67.967 0.0264878 64.2439 -0.000789767L50.3945 -0.000976562Z" fill="url(#paint0_linear_597_23221)"/>
<path fill-rule="evenodd" clip-rule="evenodd" d="M41.3357 7.91268L41.3405 7.90245L41.3411 7.90261C41.4038 7.79056 41.5241 7.71476 41.6621 7.71476C41.8615 7.71476 42.0238 7.87292 42.0292 8.07006L42.0294 8.07009V19.8975H48.1501V-0.000976562H42.0294C41.2532 0.0247342 40.3763 0.59157 40.0502 1.28738L35.1793 11.683C35.1673 11.7255 35.1485 11.7652 35.1242 11.8008L35.1225 11.8042L35.1219 11.804C35.0482 11.9096 34.9255 11.9787 34.7865 11.9787C34.5612 11.9787 34.3785 11.7969 34.3785 11.5726V-0.000976562H28.2578V19.8975H34.3785V19.8952C35.1462 19.8553 36.0025 19.2949 36.3238 18.6091L41.3231 7.93949C41.3269 7.93036 41.3311 7.92142 41.3357 7.91268Z" fill="#57A637"/>
<path fill-rule="evenodd" clip-rule="evenodd" d="M18.4797 8.25282L14.9024 19.8975H10.4994L6.91991 8.24575C6.88539 8.05917 6.7211 7.91781 6.52363 7.91781C6.30109 7.91781 6.12069 8.09735 6.12069 8.31882C6.12069 8.32051 6.1207 8.3222 6.12072 8.32389L6.12069 19.8975H0V-0.000976562H5.25359H6.81822C7.94444 -0.000976562 9.12465 0.868852 9.45376 1.94017L12.4325 11.6367C12.5807 12.1191 12.8212 12.1186 12.9693 11.6367L15.948 1.94017C16.2774 0.868104 17.4572 -0.000976562 18.5836 -0.000976562L20.1477 -0.000976562H25.4009V19.8975H19.2802V8.3239C19.2802 8.3222 19.2802 8.32051 19.2802 8.31882C19.2802 8.09735 19.0998 7.91781 18.8772 7.91781C18.6773 7.91781 18.5113 8.06275 18.4797 8.25282Z" fill="#57A637"/>
</g>
<defs>
<linearGradient id="paint0_linear_597_23221" x1="50.3945" y1="401.014" x2="2108.61" y2="401.014" gradientUnits="userSpaceOnUse">
<stop stop-color="#00A0E5"/>
<stop offset="1" stop-color="#0077C3"/>
</linearGradient>
<clipPath id="clip0_597_23221">
<rect width="71" height="20" fill="white"/>
</clipPath>
</defs>
</svg>
