<svg width="20" height="25" viewBox="0 0 20 25" fill="none" xmlns="http://www.w3.org/2000/svg">
<path d="M15.722 6.76586C15.722 5.62548 15.3838 4.51071 14.7502 3.56252C14.1167 2.61433 13.2162 1.87531 12.1626 1.4389C11.109 1.0025 9.94971 0.888315 8.83124 1.11079C7.71277 1.33327 6.6854 1.88241 5.87903 2.68878C5.07266 3.49515 4.52352 4.52253 4.30104 5.64099C4.07856 6.75946 4.19275 7.91878 4.62915 8.97235C5.06555 10.0259 5.80458 10.9264 6.75277 11.56C7.70096 12.1935 8.81572 12.5317 9.9561 12.5317C11.4853 12.5317 12.9519 11.9242 14.0332 10.8429C15.1145 9.76162 15.722 8.29505 15.722 6.76586ZM5.36098 6.76586C5.36098 5.85703 5.63048 4.96861 6.1354 4.21294C6.64032 3.45728 7.35798 2.86831 8.19763 2.52052C9.03727 2.17272 9.9612 2.08172 10.8526 2.25903C11.7439 2.43633 12.5627 2.87397 13.2053 3.51661C13.848 4.15925 14.2856 4.97803 14.4629 5.86939C14.6402 6.76076 14.5492 7.68468 14.2014 8.52433C13.8536 9.36398 13.2647 10.0816 12.509 10.5866C11.7534 11.0915 10.8649 11.361 9.9561 11.361C8.7374 11.361 7.56861 10.8768 6.70686 10.0151C5.84511 9.15334 5.36098 7.98456 5.36098 6.76586Z" fill="#333"/>
<path d="M5.36098 6.76586C5.36098 5.85703 5.63048 4.96861 6.1354 4.21294C6.64032 3.45728 7.35798 2.86831 8.19763 2.52052C9.03727 2.17272 9.9612 2.08172 10.8526 2.25903C11.7439 2.43633 12.5627 2.87397 13.2053 3.51661C13.848 4.15925 14.2856 4.97803 14.4629 5.86939C14.6402 6.76076 14.5492 7.68468 14.2014 8.52433C13.8536 9.36398 13.2647 10.0816 12.509 10.5866C11.7534 11.0915 10.8649 11.361 9.9561 11.361C8.7374 11.361 7.56861 10.8768 6.70686 10.0151C5.84511 9.15334 5.36098 7.98456 5.36098 6.76586Z" fill="transparent"/>
<path d="M15.722 6.76586C15.722 5.62548 15.3838 4.51071 14.7502 3.56252C14.1167 2.61433 13.2162 1.87531 12.1626 1.4389C11.109 1.0025 9.94971 0.888315 8.83124 1.11079C7.71277 1.33327 6.6854 1.88241 5.87903 2.68878C5.07266 3.49515 4.52352 4.52253 4.30104 5.64099C4.07856 6.75946 4.19275 7.91878 4.62915 8.97235C5.06555 10.0259 5.80458 10.9264 6.75277 11.56C7.70096 12.1935 8.81572 12.5317 9.9561 12.5317C11.4853 12.5317 12.9519 11.9242 14.0332 10.8429C15.1145 9.76162 15.722 8.29505 15.722 6.76586ZM5.36098 6.76586C5.36098 5.85703 5.63048 4.96861 6.1354 4.21294C6.64032 3.45728 7.35798 2.86831 8.19763 2.52052C9.03727 2.17272 9.9612 2.08172 10.8526 2.25903C11.7439 2.43633 12.5627 2.87397 13.2053 3.51661C13.848 4.15925 14.2856 4.97803 14.4629 5.86939C14.6402 6.76076 14.5492 7.68468 14.2014 8.52433C13.8536 9.36398 13.2647 10.0816 12.509 10.5866C11.7534 11.0915 10.8649 11.361 9.9561 11.361C8.7374 11.361 7.56861 10.8768 6.70686 10.0151C5.84511 9.15334 5.36098 7.98456 5.36098 6.76586Z" stroke="#333" stroke-width="0.4"/>
<path d="M5.36098 6.76586C5.36098 5.85703 5.63048 4.96861 6.1354 4.21294C6.64032 3.45728 7.35798 2.86831 8.19763 2.52052C9.03727 2.17272 9.9612 2.08172 10.8526 2.25903C11.7439 2.43633 12.5627 2.87397 13.2053 3.51661C13.848 4.15925 14.2856 4.97803 14.4629 5.86939C14.6402 6.76076 14.5492 7.68468 14.2014 8.52433C13.8536 9.36398 13.2647 10.0816 12.509 10.5866C11.7534 11.0915 10.8649 11.361 9.9561 11.361C8.7374 11.361 7.56861 10.8768 6.70686 10.0151C5.84511 9.15334 5.36098 7.98456 5.36098 6.76586Z" stroke="#333" stroke-width="0.4"/>
<path d="M18.9122 20.9854C18.9122 18.6101 17.9686 16.3321 16.289 14.6525C14.6094 12.9729 12.3314 12.0293 9.9561 12.0293C7.58079 12.0293 5.30277 12.9729 3.62318 14.6525C1.94359 16.3321 1 18.6101 1 20.9854V21.6586C1 22.2796 1.24669 22.8751 1.6858 23.3142C2.12491 23.7533 2.72047 24 3.34146 24H16.5707C17.1917 24 17.7873 23.7533 18.2264 23.3142C18.6655 22.8751 18.9122 22.2796 18.9122 21.6586V20.9854ZM17.7415 21.6586C17.7455 21.8134 17.718 21.9674 17.6605 22.1113C17.6031 22.2552 17.517 22.3858 17.4075 22.4954C17.298 22.6049 17.1673 22.691 17.0235 22.7484C16.8796 22.8058 16.7256 22.8333 16.5707 22.8293H3.34146C3.18662 22.8333 3.03259 22.8058 2.88873 22.7484C2.74487 22.691 2.6142 22.6049 2.50467 22.4954C2.39515 22.3858 2.30906 22.2552 2.25165 22.1113C2.19424 21.9674 2.16671 21.8134 2.17073 21.6586V20.9854C2.17073 19.963 2.37211 18.9506 2.76336 18.0061C3.15461 17.0615 3.72807 16.2032 4.45101 15.4803C5.17395 14.7574 6.0322 14.1839 6.97677 13.7927C7.92133 13.4014 8.93371 13.2 9.9561 13.2C10.9785 13.2 11.9909 13.4014 12.9354 13.7927C13.88 14.1839 14.7382 14.7574 15.4612 15.4803C16.1841 16.2032 16.7576 17.0615 17.1488 18.0061C17.5401 18.9506 17.7415 19.963 17.7415 20.9854V21.6586Z" fill="#333"/>
<path d="M17.7415 21.6586C17.7455 21.8134 17.718 21.9674 17.6605 22.1113C17.6031 22.2552 17.517 22.3858 17.4075 22.4954C17.298 22.6049 17.1673 22.691 17.0235 22.7484C16.8796 22.8058 16.7256 22.8333 16.5707 22.8293H3.34146C3.18662 22.8333 3.03259 22.8058 2.88873 22.7484C2.74487 22.691 2.6142 22.6049 2.50467 22.4954C2.39515 22.3858 2.30906 22.2552 2.25165 22.1113C2.19424 21.9674 2.16671 21.8134 2.17073 21.6586V20.9854C2.17073 19.963 2.37211 18.9506 2.76336 18.0061C3.15461 17.0615 3.72807 16.2032 4.45101 15.4803C5.17395 14.7574 6.0322 14.1839 6.97677 13.7927C7.92133 13.4014 8.93371 13.2 9.9561 13.2C10.9785 13.2 11.9909 13.4014 12.9354 13.7927C13.88 14.1839 14.7382 14.7574 15.4612 15.4803C16.1841 16.2032 16.7576 17.0615 17.1488 18.0061C17.5401 18.9506 17.7415 19.963 17.7415 20.9854V21.6586Z" fill="transparent"/>
<path d="M18.9122 20.9854C18.9122 18.6101 17.9686 16.3321 16.289 14.6525C14.6094 12.9729 12.3314 12.0293 9.9561 12.0293C7.58079 12.0293 5.30277 12.9729 3.62318 14.6525C1.94359 16.3321 1 18.6101 1 20.9854V21.6586C1 22.2796 1.24669 22.8751 1.6858 23.3142C2.12491 23.7533 2.72047 24 3.34146 24H16.5707C17.1917 24 17.7873 23.7533 18.2264 23.3142C18.6655 22.8751 18.9122 22.2796 18.9122 21.6586V20.9854ZM17.7415 21.6586C17.7455 21.8134 17.718 21.9674 17.6605 22.1113C17.6031 22.2552 17.517 22.3858 17.4075 22.4954C17.298 22.6049 17.1673 22.691 17.0235 22.7484C16.8796 22.8058 16.7256 22.8333 16.5707 22.8293H3.34146C3.18662 22.8333 3.03259 22.8058 2.88873 22.7484C2.74487 22.691 2.6142 22.6049 2.50467 22.4954C2.39515 22.3858 2.30906 22.2552 2.25165 22.1113C2.19424 21.9674 2.16671 21.8134 2.17073 21.6586V20.9854C2.17073 19.963 2.37211 18.9506 2.76336 18.0061C3.15461 17.0615 3.72807 16.2032 4.45101 15.4803C5.17395 14.7574 6.0322 14.1839 6.97677 13.7927C7.92133 13.4014 8.93371 13.2 9.9561 13.2C10.9785 13.2 11.9909 13.4014 12.9354 13.7927C13.88 14.1839 14.7382 14.7574 15.4612 15.4803C16.1841 16.2032 16.7576 17.0615 17.1488 18.0061C17.5401 18.9506 17.7415 19.963 17.7415 20.9854V21.6586Z" stroke="#333" stroke-width="0.4"/>
<path d="M17.7415 21.6586C17.7455 21.8134 17.718 21.9674 17.6605 22.1113C17.6031 22.2552 17.517 22.3858 17.4075 22.4954C17.298 22.6049 17.1673 22.691 17.0235 22.7484C16.8796 22.8058 16.7256 22.8333 16.5707 22.8293H3.34146C3.18662 22.8333 3.03259 22.8058 2.88873 22.7484C2.74487 22.691 2.6142 22.6049 2.50467 22.4954C2.39515 22.3858 2.30906 22.2552 2.25165 22.1113C2.19424 21.9674 2.16671 21.8134 2.17073 21.6586V20.9854C2.17073 19.963 2.37211 18.9506 2.76336 18.0061C3.15461 17.0615 3.72807 16.2032 4.45101 15.4803C5.17395 14.7574 6.0322 14.1839 6.97677 13.7927C7.92133 13.4014 8.93371 13.2 9.9561 13.2C10.9785 13.2 11.9909 13.4014 12.9354 13.7927C13.88 14.1839 14.7382 14.7574 15.4612 15.4803C16.1841 16.2032 16.7576 17.0615 17.1488 18.0061C17.5401 18.9506 17.7415 19.963 17.7415 20.9854V21.6586Z" stroke="#333" stroke-width="0.4"/>
</svg>
