<svg width="19" height="17" viewBox="0 0 19 17" fill="none" xmlns="http://www.w3.org/2000/svg">
<path d="M5.5 4.5C6.60457 4.5 7.5 3.60457 7.5 2.5C7.5 1.39543 6.60457 0.5 5.5 0.5C4.39543 0.5 3.5 1.39543 3.5 2.5C3.5 3.60457 4.39543 4.5 5.5 4.5Z" fill="black"/>
<path d="M14.5 10.5C15.6046 10.5 16.5 9.60457 16.5 8.5C16.5 7.39543 15.6046 6.5 14.5 6.5C13.3954 6.5 12.5 7.39543 12.5 8.5C12.5 9.60457 13.3954 10.5 14.5 10.5Z" fill="black"/>
<path d="M6.5 16.5C7.60457 16.5 8.5 15.6046 8.5 14.5C8.5 13.3954 7.60457 12.5 6.5 12.5C5.39543 12.5 4.5 13.3954 4.5 14.5C4.5 15.6046 5.39543 16.5 6.5 16.5Z" fill="black"/>
<path d="M18.5 3H7.5C7.36739 3 7.24021 2.94732 7.14645 2.85355C7.05268 2.75979 7 2.63261 7 2.5C7 2.36739 7.05268 2.24021 7.14645 2.14645C7.24021 2.05268 7.36739 2 7.5 2H18.5C18.6326 2 18.7598 2.05268 18.8536 2.14645C18.9473 2.24021 19 2.36739 19 2.5C19 2.63261 18.9473 2.75979 18.8536 2.85355C18.7598 2.94732 18.6326 3 18.5 3Z" fill="black"/>
<path d="M3.5 3H0.5C0.367392 3 0.240215 2.94732 0.146447 2.85355C0.0526785 2.75979 0 2.63261 0 2.5C0 2.36739 0.0526785 2.24021 0.146447 2.14645C0.240215 2.05268 0.367392 2 0.5 2H3.5C3.63261 2 3.75979 2.05268 3.85355 2.14645C3.94732 2.24021 4 2.36739 4 2.5C4 2.63261 3.94732 2.75979 3.85355 2.85355C3.75979 2.94732 3.63261 3 3.5 3Z" fill="black"/>
<path d="M18.5 9H16.5C16.3674 9 16.2402 8.94732 16.1464 8.85355C16.0527 8.75979 16 8.63261 16 8.5C16 8.36739 16.0527 8.24021 16.1464 8.14645C16.2402 8.05268 16.3674 8 16.5 8H18.5C18.6326 8 18.7598 8.05268 18.8536 8.14645C18.9473 8.24021 19 8.36739 19 8.5C19 8.63261 18.9473 8.75979 18.8536 8.85355C18.7598 8.94732 18.6326 9 18.5 9Z" fill="black"/>
<path d="M12.5 9H0.5C0.367392 9 0.240215 8.94732 0.146447 8.85355C0.0526785 8.75979 0 8.63261 0 8.5C0 8.36739 0.0526785 8.24021 0.146447 8.14645C0.240215 8.05268 0.367392 8 0.5 8H12.5C12.6326 8 12.7598 8.05268 12.8536 8.14645C12.9473 8.24021 13 8.36739 13 8.5C13 8.63261 12.9473 8.75979 12.8536 8.85355C12.7598 8.94732 12.6326 9 12.5 9Z" fill="black"/>
<path d="M18.5 15H8.5C8.36739 15 8.24021 14.9473 8.14645 14.8536C8.05268 14.7598 8 14.6326 8 14.5C8 14.3674 8.05268 14.2402 8.14645 14.1464C8.24021 14.0527 8.36739 14 8.5 14H18.5C18.6326 14 18.7598 14.0527 18.8536 14.1464C18.9473 14.2402 19 14.3674 19 14.5C19 14.6326 18.9473 14.7598 18.8536 14.8536C18.7598 14.9473 18.6326 15 18.5 15Z" fill="black"/>
<path d="M4.5 15H0.5C0.367392 15 0.240215 14.9473 0.146447 14.8536C0.0526785 14.7598 0 14.6326 0 14.5C0 14.3674 0.0526785 14.2402 0.146447 14.1464C0.240215 14.0527 0.367392 14 0.5 14H4.5C4.63261 14 4.75979 14.0527 4.85355 14.1464C4.94732 14.2402 5 14.3674 5 14.5C5 14.6326 4.94732 14.7598 4.85355 14.8536C4.75979 14.9473 4.63261 15 4.5 15Z" fill="black"/>
</svg>
