<svg width="24" height="24" viewBox="0 0 24 24" fill="none" xmlns="http://www.w3.org/2000/svg">
<path d="M16.0444 14.9007C17.3388 13.3448 18.0451 11.4057 18.0451 9.35672C18.0451 7.03566 17.1415 4.85374 15.4999 3.21256C13.8587 1.57138 11.6768 0.666992 9.35574 0.666992C7.03429 0.666992 4.85237 1.57138 3.21119 3.21256C1.57001 4.85374 0.666016 7.03567 0.666016 9.35672C0.666016 11.6778 1.57001 13.8597 3.21119 15.5009C4.85237 17.1421 7.03469 18.0464 9.35574 18.0464C11.4047 18.0464 13.3438 17.3396 14.8997 16.0454L21.9508 23.0965C22.1089 23.2546 22.316 23.3337 22.5232 23.3337C22.7303 23.3337 22.9374 23.2546 23.0955 23.0965C23.4117 22.7803 23.4117 22.268 23.0955 21.9518L16.0444 14.9007ZM4.35591 14.3562C3.02067 13.0209 2.28506 11.2453 2.28506 9.35672C2.28506 7.46809 3.02066 5.69252 4.35591 4.35728C5.69154 3.02204 7.46712 2.28604 9.35574 2.28604C11.244 2.28604 13.0196 3.02204 14.3552 4.35728C15.6908 5.69252 16.426 7.46809 16.426 9.35672C16.426 11.2453 15.6908 13.0209 14.3552 14.3562C13.0195 15.6914 11.244 16.4274 9.35574 16.4274C7.46712 16.4274 5.69154 15.6914 4.35591 14.3562Z" fill="currentColor" stroke="currentColor" stroke-width="0.5"/>
</svg>
