<svg width="24" height="24" viewBox="0 0 24 24" fill="none" xmlns="http://www.w3.org/2000/svg">
<path d="M11.1054 14.576C12.4378 13.9111 13.3571 12.538 13.3571 10.9504C13.3571 8.71556 11.5387 6.89746 9.30412 6.89746C7.06943 6.89746 5.25118 8.71582 5.25118 10.9504C5.25118 12.5378 6.17059 13.9111 7.50281 14.576C3.93621 15.4168 3.18427 18.7019 3.03498 19.7353C3.01015 19.9071 3.14081 20.0548 3.31427 20.0634C3.48728 20.072 3.63562 19.9408 3.65922 19.7692C3.81201 18.6582 4.66761 15.004 9.30367 15.004C13.9383 15.004 14.7949 18.6561 14.948 19.7682C14.9717 19.9404 15.1205 20.072 15.2941 20.0633C15.4673 20.0547 15.5974 19.908 15.5726 19.7363C15.4239 18.7042 14.6729 15.4171 11.1054 14.576ZM5.87901 10.9507C5.87901 9.06222 7.4153 7.52593 9.30378 7.52593C11.1923 7.52593 12.7285 9.06222 12.7285 10.9507C12.7285 12.8392 11.1923 14.3758 9.30378 14.3758C7.4153 14.3756 5.87901 12.8392 5.87901 10.9507Z" fill="currentColor" stroke="currentColor"/>
<path d="M16.4969 11.6786C17.8292 11.0136 18.7485 9.64049 18.7485 8.05294C18.7485 5.8181 16.9301 4 14.6956 4C13.013 4 11.232 5.25509 10.9805 7.1723C10.9641 7.29759 11.048 7.41213 11.168 7.4518C11.3509 7.51231 11.5513 7.38098 11.5793 7.19033C11.8096 5.62428 13.3376 4.6284 14.6956 4.6284C16.5841 4.6284 18.1204 6.16469 18.1204 8.05317C18.1204 9.94165 16.5841 11.4782 14.6956 11.4782C14.3852 11.4782 13.1857 11.4329 12.8997 11.3552C12.8417 11.6474 12.8175 11.8117 12.7037 12.1839C13.0625 12.129 14.2776 12.1065 14.6956 12.1065C19.3309 12.1065 20.1871 15.7596 20.3401 16.8712C20.3637 17.043 20.5123 17.1745 20.6856 17.1658C20.8589 17.1572 20.9892 17.01 20.9645 16.8383C20.8155 15.8056 20.064 12.5194 16.4969 11.6786Z" fill="currentColor" stroke="currentColor"/>
</svg>
