<svg width="26" height="28" viewBox="0 0 26 28" fill="none" xmlns="http://www.w3.org/2000/svg">
<g filter="url(#filter0_d_353_2520)">
<path d="M16.0803 19C17.8033 19 19.1861 17.6625 19.2541 15.9395L19.6169 4.74055H21.3171C21.5665 4.74055 21.7705 4.53652 21.7705 4.28715C21.7705 4.03778 21.5665 3.83375 21.3171 3.83375H16.5564V2.8136C16.5564 1.81612 15.7403 1 14.7428 1H11.297C10.2995 1 9.48336 1.81612 9.48336 2.8136V3.83375H4.69998C4.45061 3.83375 4.24658 4.03778 4.24658 4.28715C4.24658 4.53652 4.45061 4.74055 4.69998 4.74055H6.40023L6.76295 15.9395C6.83096 17.6625 8.21384 19 9.93676 19H16.0803ZM10.3902 2.8136C10.3902 2.31486 10.7982 1.9068 11.297 1.9068H14.7428C15.2415 1.9068 15.6496 2.31486 15.6496 2.8136V3.83375H10.3902V2.8136ZM7.69243 15.8942L7.32971 4.71788H18.7327L18.3473 15.8942C18.302 17.1184 17.3045 18.0932 16.0803 18.0932H9.95943C8.73525 18.0932 7.73777 17.1411 7.69243 15.8942Z" fill="black" stroke="black" stroke-width="0.3"/>
<path d="M13.0198 15.191C13.2692 15.191 13.4732 14.987 13.4732 14.7376V7.95926C13.4732 7.70989 13.2692 7.50586 13.0198 7.50586C12.7704 7.50586 12.5664 7.70989 12.5664 7.95926V14.7376C12.5664 14.987 12.7704 15.191 13.0198 15.191Z" fill="black" stroke="black" stroke-width="0.3"/>
<path d="M10.2996 15.191C10.549 15.191 10.753 14.987 10.753 14.7376V7.95926C10.753 7.70989 10.549 7.50586 10.2996 7.50586C10.0502 7.50586 9.84619 7.70989 9.84619 7.95926V14.7376C9.84619 14.987 10.0502 15.191 10.2996 15.191Z" fill="black" stroke="black" stroke-width="0.3"/>
<path d="M15.7403 15.191C15.9896 15.191 16.1937 14.987 16.1937 14.7376V7.95926C16.1937 7.70989 15.9896 7.50586 15.7403 7.50586C15.4909 7.50586 15.2869 7.70989 15.2869 7.95926V14.7376C15.2869 14.987 15.4909 15.191 15.7403 15.191Z" fill="black" stroke="black" stroke-width="0.3"/>
</g>
<defs>
<filter id="filter0_d_353_2520" x="0.0966797" y="0.850098" width="25.8237" height="26.2998" filterUnits="userSpaceOnUse" color-interpolation-filters="sRGB">
<feFlood flood-opacity="0" result="BackgroundImageFix"/>
<feColorMatrix in="SourceAlpha" type="matrix" values="0 0 0 0 0 0 0 0 0 0 0 0 0 0 0 0 0 0 127 0" result="hardAlpha"/>
<feOffset dy="4"/>
<feGaussianBlur stdDeviation="2"/>
<feComposite in2="hardAlpha" operator="out"/>
<feColorMatrix type="matrix" values="0 0 0 0 0 0 0 0 0 0 0 0 0 0 0 0 0 0 0.25 0"/>
<feBlend mode="normal" in2="BackgroundImageFix" result="effect1_dropShadow_353_2520"/>
<feBlend mode="normal" in="SourceGraphic" in2="effect1_dropShadow_353_2520" result="shape"/>
</filter>
</defs>
</svg>
