<svg width="21" height="18" viewBox="0 0 21 18" fill="none" xmlns="http://www.w3.org/2000/svg">
<path d="M3.61154 1H17.4984C18.9316 1 20.1101 2.24895 20.1101 3.76793V15.8186C20.1101 16.3249 19.8235 16.7637 19.3775 16.9325C19.2501 16.9662 19.1227 17 18.9953 17C18.6768 17 18.3583 16.865 18.1354 16.5949L15.9377 13.8608H3.61154C2.17827 13.8608 0.9998 12.6118 0.9998 11.0928V3.76793C0.9998 2.24895 2.17827 1 3.61154 1ZM2.27382 11.0591C2.27382 11.8354 2.87898 12.4768 3.61154 12.4768H16.2243C16.4154 12.4768 16.5747 12.5781 16.7021 12.7131L18.8361 15.3797V3.76793C18.8361 2.99156 18.2309 2.35021 17.4984 2.35021H3.61154C2.87898 2.35021 2.27382 2.99156 2.27382 3.76793V11.0591Z" fill="black" stroke="white" stroke-width="0.1"/>
</svg>
