<svg width="19" height="20" viewBox="0 0 19 20" fill="none" xmlns="http://www.w3.org/2000/svg">
<path d="M0.94201 18.9886C1.01978 18.9894 1.09712 18.977 1.17074 18.952L6.20964 17.2708C6.23172 17.2626 6.25314 17.2526 6.27369 17.2411L6.29885 17.2273C6.32693 17.2096 6.35301 17.1889 6.37661 17.1656L17.3556 6.19345C17.9261 5.62292 18.2467 4.84911 18.2467 4.04225C18.2467 3.2354 17.9261 2.46159 17.3556 1.89106C16.7851 1.32052 16.0113 1 15.2044 1C14.3976 1 13.6238 1.32052 13.0532 1.89106L2.08566 12.8586C2.06231 12.8822 2.0416 12.9083 2.0239 12.9364L2.01018 12.9615C1.99863 12.9821 1.98869 13.0035 1.98044 13.0256L0.29242 18.0851C0.255752 18.1888 0.244554 18.2998 0.259771 18.4087C0.274988 18.5177 0.316174 18.6214 0.379856 18.7111C0.443538 18.8008 0.52785 18.8738 0.625685 18.9241C0.72352 18.9744 0.83201 19.0004 0.94201 19V18.9886ZM12.2252 4.00451L15.2422 7.02145L6.06554 16.1889L3.05775 13.1811L12.2252 4.00451ZM13.6914 2.53836C14.0902 2.13829 14.6317 1.91305 15.1966 1.91219C15.7615 1.91133 16.3037 2.13493 16.7037 2.53378C17.1038 2.93264 17.329 3.47409 17.3299 4.03902C17.3308 4.60395 17.1072 5.14608 16.7083 5.54615L15.8849 6.365L12.8817 3.36178L13.6914 2.53836ZM2.61859 14.0274L5.21924 16.6281L1.30569 17.9318L2.61859 14.0274Z" fill="black" stroke="black" stroke-width="0.3"/>
</svg>
