<svg width="24" height="24" viewBox="0 0 24 24" fill="none" xmlns="http://www.w3.org/2000/svg">
<g id="trash-can-line" clip-path="url(#clip0_210_1793)">
<g id="icon">
<path d="M13.1667 1.66667V0.833334C13.1667 0.373096 12.7936 0 12.3334 0V0C11.8731 0 11.5001 0.373096 11.5001 0.833333V1.66667H5.66708C4.73075 1.66667 3.99815 2.43105 4 3.33333H20.6667C20.6685 2.43105 19.9359 1.66667 18.9996 1.66667H13.1667Z" fill="black"/>
<path d="M14.8333 7.5C14.8333 7.03976 14.4602 6.66667 14 6.66667V6.66667C13.5398 6.66667 13.1667 7.03976 13.1667 7.5V12.5C13.1667 12.9602 13.5398 13.3333 14 13.3333V13.3333C14.4602 13.3333 14.8333 12.9602 14.8333 12.5V7.5Z" fill="black"/>
<path d="M9.83333 7.5C9.83333 7.03976 10.2064 6.66667 10.6667 6.66667V6.66667C11.1269 6.66667 11.5 7.03976 11.5 7.5V12.5C11.5 12.9602 11.1269 13.3333 10.6667 13.3333V13.3333C10.2064 13.3333 9.83333 12.9602 9.83333 12.5V7.5Z" fill="black"/>
<path d="M17.3823 5.74069C17.4295 5.31893 17.7861 5 18.2104 5V5C18.7074 5 19.0939 5.43213 19.0386 5.92598L17.9005 16.0997L17.9003 16.1017C17.7633 17.371 16.6917 18.3333 15.4147 18.3333H9.25516C7.97829 18.3333 6.90675 17.3711 6.76962 16.1019L6.76938 16.0997L5.62887 5.92617C5.5735 5.43226 5.96001 5 6.45701 5V5C6.88133 5 7.23789 5.31882 7.28516 5.74049L8.42658 15.9221C8.47193 16.3456 8.82928 16.6667 9.25516 16.6667H15.4147C15.8406 16.6667 16.198 16.3456 16.2433 15.9221L16.2438 15.9182L17.3823 5.74069Z" fill="black"/>
<path d="M13.1667 1.66667V0.833334C13.1667 0.373096 12.7936 0 12.3334 0V0C11.8731 0 11.5001 0.373096 11.5001 0.833333V1.66667H5.66708C4.73075 1.66667 3.99815 2.43105 4 3.33333H20.6667C20.6685 2.43105 19.9359 1.66667 18.9996 1.66667H13.1667Z" stroke="white" stroke-width="0.4"/>
<path d="M14.8333 7.5C14.8333 7.03976 14.4602 6.66667 14 6.66667V6.66667C13.5398 6.66667 13.1667 7.03976 13.1667 7.5V12.5C13.1667 12.9602 13.5398 13.3333 14 13.3333V13.3333C14.4602 13.3333 14.8333 12.9602 14.8333 12.5V7.5Z" stroke="white" stroke-width="0.4"/>
<path d="M9.83333 7.5C9.83333 7.03976 10.2064 6.66667 10.6667 6.66667V6.66667C11.1269 6.66667 11.5 7.03976 11.5 7.5V12.5C11.5 12.9602 11.1269 13.3333 10.6667 13.3333V13.3333C10.2064 13.3333 9.83333 12.9602 9.83333 12.5V7.5Z" stroke="white" stroke-width="0.4"/>
<path d="M17.3823 5.74069C17.4295 5.31893 17.7861 5 18.2104 5V5C18.7074 5 19.0939 5.43213 19.0386 5.92598L17.9005 16.0997L17.9003 16.1017C17.7633 17.371 16.6917 18.3333 15.4147 18.3333H9.25516C7.97829 18.3333 6.90675 17.3711 6.76962 16.1019L6.76938 16.0997L5.62887 5.92617C5.5735 5.43226 5.96001 5 6.45701 5V5C6.88133 5 7.23789 5.31882 7.28516 5.74049L8.42658 15.9221C8.47193 16.3456 8.82928 16.6667 9.25516 16.6667H15.4147C15.8406 16.6667 16.198 16.3456 16.2433 15.9221L16.2438 15.9182L17.3823 5.74069Z" stroke="white" stroke-width="0.4"/>
</g>
</g>
<defs>
<clipPath id="clip0_210_1793">
<rect width="24" height="24" fill="white"/>
</clipPath>
</defs>
</svg>
