<svg width="26" height="23" viewBox="0 0 26 23" fill="none" xmlns="http://www.w3.org/2000/svg">
<path fill-rule="evenodd" clip-rule="evenodd" d="M24.2214 13.5363C24.2214 13.2881 24.2214 8.28073 24.2214 8.28073L24.3747 8.18792C24.5755 8.06662 24.7395 7.89305 24.8493 7.68576C24.9591 7.47847 25.0106 7.24525 24.9982 7.011C24.9858 6.77675 24.91 6.55026 24.7789 6.35574C24.6478 6.16122 24.4663 6.00596 24.2538 5.90654L14.6578 1.374C14.1391 1.12775 13.5721 1 12.998 1C12.4238 1 11.8569 1.12775 11.3382 1.374L1.74218 5.90654C1.53075 6.00635 1.35029 6.16154 1.21993 6.35564C1.08958 6.54974 1.01421 6.77551 1.00182 7.00898C0.989428 7.24246 1.04047 7.47494 1.14954 7.68175C1.25861 7.88855 1.42164 8.06197 1.62132 8.18361L5.01209 10.2578V18.6408C5.01209 20.6092 8.44603 22.0942 12.998 22.0942C17.55 22.0942 20.9839 20.6092 20.9839 18.6408V10.2578L23.3581 8.80953C23.3581 8.80953 23.3581 13.2881 23.3581 13.5363C23.3581 13.7846 23.5638 13.968 23.7898 13.968C24.0157 13.968 24.2214 13.7846 24.2214 13.5363ZM1.93774 6.84394C1.89443 6.90853 1.86937 6.98361 1.86521 7.06126V7.0591C1.86069 7.137 1.87738 7.21466 1.91348 7.28383C1.94959 7.353 2.00377 7.41109 2.07025 7.45192L11.4246 13.1586C11.8977 13.4498 12.4424 13.6039 12.998 13.6039C13.5536 13.6039 14.0983 13.4498 14.5714 13.1586L23.9301 7.45192C23.9968 7.41137 24.0512 7.35349 24.0877 7.28444C24.1241 7.21538 24.1411 7.13774 24.1369 7.05978C24.1327 6.98183 24.1074 6.90647 24.0638 6.84174C24.0201 6.777 23.9597 6.72532 23.889 6.69218L14.293 2.15964C13.8886 1.96647 13.4461 1.86622 12.998 1.86622C12.5498 1.86622 12.1074 1.96647 11.703 2.15964L2.11126 6.69434C2.041 6.72767 1.98105 6.77936 1.93774 6.84394ZM12.998 21.2309C17.196 21.2309 20.1206 19.8668 20.1206 18.6408V10.7844L15.0225 13.8925C14.4134 14.2663 13.7127 14.4643 12.998 14.4643C12.2833 14.4643 11.5826 14.2663 10.9735 13.8925L5.87543 10.7844V18.6408C5.87543 19.8668 8.8 21.2309 12.998 21.2309Z" fill="transparent"/>
<path d="M1.86521 7.06126C1.86937 6.98361 1.89443 6.90853 1.93774 6.84394C1.98105 6.77936 2.041 6.72767 2.11126 6.69434L11.703 2.15964C12.1074 1.96647 12.5498 1.86622 12.998 1.86622C13.4461 1.86622 13.8886 1.96647 14.293 2.15964L23.889 6.69218C23.9597 6.72532 24.0201 6.777 24.0638 6.84174C24.1074 6.90647 24.1327 6.98183 24.1369 7.05978C24.1411 7.13774 24.1241 7.21538 24.0877 7.28444C24.0512 7.35349 23.9968 7.41137 23.9301 7.45192L14.5714 13.1586C14.0983 13.4498 13.5536 13.6039 12.998 13.6039C12.4424 13.6039 11.8977 13.4498 11.4246 13.1586L2.07025 7.45192C2.00377 7.41109 1.94959 7.353 1.91348 7.28383C1.87738 7.21466 1.86069 7.137 1.86521 7.0591V7.06126Z" fill="transparent"/>
<path d="M20.1206 18.6408C20.1206 19.8668 17.196 21.2309 12.998 21.2309C8.8 21.2309 5.87543 19.8668 5.87543 18.6408V10.7844L10.9735 13.8925C11.5826 14.2663 12.2833 14.4643 12.998 14.4643C13.7127 14.4643 14.4134 14.2663 15.0225 13.8925L20.1206 10.7844V18.6408Z" fill="transparent"/>
<path fill-rule="evenodd" clip-rule="evenodd" d="M24.2214 13.5363C24.2214 13.2881 24.2214 8.28073 24.2214 8.28073L24.3747 8.18792C24.5755 8.06662 24.7395 7.89305 24.8493 7.68576C24.9591 7.47847 25.0106 7.24525 24.9982 7.011C24.9858 6.77675 24.91 6.55026 24.7789 6.35574C24.6478 6.16122 24.4663 6.00596 24.2538 5.90654L14.6578 1.374C14.1391 1.12775 13.5721 1 12.998 1C12.4238 1 11.8569 1.12775 11.3382 1.374L1.74218 5.90654C1.53075 6.00635 1.35029 6.16154 1.21993 6.35564C1.08958 6.54974 1.01421 6.77551 1.00182 7.00898C0.989428 7.24246 1.04047 7.47494 1.14954 7.68175C1.25861 7.88855 1.42164 8.06197 1.62132 8.18361L5.01209 10.2578V18.6408C5.01209 20.6092 8.44603 22.0942 12.998 22.0942C17.55 22.0942 20.9839 20.6092 20.9839 18.6408V10.2578L23.3581 8.80953C23.3581 8.80953 23.3581 13.2881 23.3581 13.5363C23.3581 13.7846 23.5638 13.968 23.7898 13.968C24.0157 13.968 24.2214 13.7846 24.2214 13.5363ZM1.93774 6.84394C1.89443 6.90853 1.86937 6.98361 1.86521 7.06126V7.0591C1.86069 7.137 1.87738 7.21466 1.91348 7.28383C1.94959 7.353 2.00377 7.41109 2.07025 7.45192L11.4246 13.1586C11.8977 13.4498 12.4424 13.6039 12.998 13.6039C13.5536 13.6039 14.0983 13.4498 14.5714 13.1586L23.9301 7.45192C23.9968 7.41137 24.0512 7.35349 24.0877 7.28444C24.1241 7.21538 24.1411 7.13774 24.1369 7.05978C24.1327 6.98183 24.1074 6.90647 24.0638 6.84174C24.0201 6.777 23.9597 6.72532 23.889 6.69218L14.293 2.15964C13.8886 1.96647 13.4461 1.86622 12.998 1.86622C12.5498 1.86622 12.1074 1.96647 11.703 2.15964L2.11126 6.69434C2.041 6.72767 1.98105 6.77936 1.93774 6.84394ZM12.998 21.2309C17.196 21.2309 20.1206 19.8668 20.1206 18.6408V10.7844L15.0225 13.8925C14.4134 14.2663 13.7127 14.4643 12.998 14.4643C12.2833 14.4643 11.5826 14.2663 10.9735 13.8925L5.87543 10.7844V18.6408C5.87543 19.8668 8.8 21.2309 12.998 21.2309Z" stroke="#333" stroke-width="1"/>
<path d="M1.86521 7.06126C1.86937 6.98361 1.89443 6.90853 1.93774 6.84394C1.98105 6.77936 2.041 6.72767 2.11126 6.69434L11.703 2.15964C12.1074 1.96647 12.5498 1.86622 12.998 1.86622C13.4461 1.86622 13.8886 1.96647 14.293 2.15964L23.889 6.69218C23.9597 6.72532 24.0201 6.777 24.0638 6.84174C24.1074 6.90647 24.1327 6.98183 24.1369 7.05978C24.1411 7.13774 24.1241 7.21538 24.0877 7.28444C24.0512 7.35349 23.9968 7.41137 23.9301 7.45192L14.5714 13.1586C14.0983 13.4498 13.5536 13.6039 12.998 13.6039C12.4424 13.6039 11.8977 13.4498 11.4246 13.1586L2.07025 7.45192C2.00377 7.41109 1.94959 7.353 1.91348 7.28383C1.87738 7.21466 1.86069 7.137 1.86521 7.0591V7.06126Z" stroke="#333" stroke-width="1"/>
<path d="M20.1206 18.6408C20.1206 19.8668 17.196 21.2309 12.998 21.2309C8.8 21.2309 5.87543 19.8668 5.87543 18.6408V10.7844L10.9735 13.8925C11.5826 14.2663 12.2833 14.4643 12.998 14.4643C13.7127 14.4643 14.4134 14.2663 15.0225 13.8925L20.1206 10.7844V18.6408Z" stroke="#333" stroke-width="1"/>
</svg>
