<svg width="66" height="22" viewBox="0 0 66 22" fill="none" xmlns="http://www.w3.org/2000/svg">
<mask id="mask0_597_23210" style="mask-type:luminance" maskUnits="userSpaceOnUse" x="0" y="0" width="66" height="22">
<path d="M34.1205 6.99603C34.0843 9.91715 36.759 11.5558 38.7831 12.5177C40.8614 13.5151 41.5482 14.1563 41.5482 15.0469C41.5301 16.4184 39.8855 17.0062 38.3494 17.0418C35.6747 17.0775 34.1205 16.3294 32.8735 15.7594L31.9157 20.2123C33.1627 20.7823 35.4578 21.2632 37.8434 21.2988C43.4458 21.2988 47.0964 18.5736 47.1145 14.3523C47.1325 8.99094 39.5964 8.68814 39.6506 6.30137C39.6687 5.57109 40.3735 4.80519 41.9096 4.60926C42.6687 4.50239 44.7831 4.43114 47.1687 5.51766L48.1084 1.20722C46.8253 0.744119 45.1807 0.298828 43.1205 0.298828C37.8434 0.298828 34.1386 3.05964 34.1205 6.99603ZM57.1084 0.655062C56.0783 0.655062 55.2289 1.24285 54.8494 2.15124L46.8614 20.9604H52.4639L53.5843 17.9324H60.4157L61.0663 20.9604H66L61.6988 0.655062H57.1084ZM57.8855 6.14107L59.494 13.7645H55.0663L57.8855 6.14107ZM27.3253 0.655062L22.9157 20.9604H28.247L32.6566 0.655062H27.3253ZM19.4458 0.655062L13.8976 14.4769L11.6566 2.72122C11.3855 1.40315 10.3554 0.655062 9.1988 0.655062H0.126505L0 1.24285C1.86145 1.6347 3.9759 2.27593 5.25904 2.97058C6.03614 3.39806 6.27108 3.7543 6.5241 4.75175L10.7711 20.9604H16.4096L25.0482 0.655062H19.4458Z" fill="white"/>
</mask>
<g mask="url(#mask0_597_23210)">
<path d="M-6.90234 2.79461L58.0856 -20.7881L72.8687 18.7895L7.88079 42.3722" fill="url(#paint0_linear_597_23210)"/>
</g>
<defs>
<linearGradient id="paint0_linear_597_23210" x1="5.96189" y1="20.6004" x2="61.358" y2="-0.0991859" gradientUnits="userSpaceOnUse">
<stop stop-color="#222357"/>
<stop offset="1" stop-color="#254AA5"/>
</linearGradient>
</defs>
</svg>
